<svg width="32" height="32" viewBox="0 0 32 32" fill="none" xmlns="http://www.w3.org/2000/svg">
  <!-- Document frame -->
  <rect x="3" y="2" width="26" height="28" rx="2" fill="#0f172a" stroke="#0294fe" stroke-width="1.2"/>
  <path d="M22 2 L29 9 L22 9 Z" fill="#1e293b" stroke="#0294fe" stroke-width="0.5"/>
  <!-- Prompdhub logo (scaled to fit) -->
  <svg x="6" y="10" width="20" height="18" viewBox="0 0 346 349" preserveAspectRatio="xMidYMid meet">
    <path fill="#0294fe" stroke="none"
          d="M 237.00,22.80
             C 237.37,26.59 242.81,42.03 244.81,44.96
               246.09,46.81 247.15,47.74 249.02,48.96
               254.88,52.76 269.86,56.56 271.57,63.02
               274.70,74.88 253.60,75.51 246.27,83.21
               238.94,90.91 240.37,106.73 231.15,108.49
               226.65,109.35 224.18,106.81 222.47,102.98
               219.48,96.31 218.65,87.34 212.90,82.39
               209.32,79.31 198.27,75.74 193.04,72.88
               189.74,71.07 186.79,68.14 187.53,64.01
               188.22,60.19 191.84,58.33 195.00,56.78
               199.76,54.46 211.24,50.26 214.35,46.66
               218.39,41.99 221.12,25.88 225.27,22.80
               228.84,19.78 233.35,21.46 237.00,22.80 Z
             M 88.00,124.00
             C 88.00,124.00 145.00,156.40 145.00,156.40
               145.00,156.40 162.00,166.15 162.00,166.15
               164.37,167.49 168.32,169.95 171.00,170.06
               174.03,170.18 177.44,167.88 180.00,166.42
               180.00,166.42 196.00,157.28 196.00,157.28
               196.00,157.28 260.00,119.86 260.00,119.86
               260.00,119.86 274.00,111.99 274.00,111.99
               281.36,109.22 289.54,111.81 291.86,120.00
               292.08,121.97 292.00,124.93 291.86,127.00
               291.86,127.00 291.86,247.00 291.86,247.00
               291.98,262.36 284.03,263.53 272.00,270.43
               272.00,270.43 221.00,300.28 221.00,300.28
               221.00,300.28 189.00,318.85 189.00,318.85
               180.21,323.90 175.59,328.22 165.00,324.45
               165.00,324.45 137.00,308.56 137.00,308.56
               137.00,308.56 83.00,277.40 83.00,277.40
               76.25,273.35 56.90,263.75 53.57,257.91
               49.73,251.17 51.74,241.32 51.83,234.01
               51.83,234.01 51.29,226.83 51.29,226.83
               51.29,226.83 51.29,184.42 51.29,184.42
               51.29,184.42 51.29,134.00 51.29,134.00
               51.09,129.44 51.31,123.07 53.57,119.04
               56.76,113.34 71.81,106.25 78.00,102.72
               78.00,102.72 126.00,75.00 126.00,75.00
               131.51,71.83 148.88,60.81 154.00,60.22
               165.31,58.92 172.04,72.72 161.96,80.25
               161.96,80.25 88.00,124.00 88.00,124.00 Z
             M 270.10,140.00
             C 270.10,140.00 242.00,155.99 242.00,155.99
               242.00,155.99 204.00,178.15 204.00,178.15
               199.96,180.47 185.97,187.90 184.02,191.21
               182.67,193.49 182.32,200.25 182.31,203.00
               182.31,203.00 182.31,212.28 182.31,212.28
               182.31,212.28 182.92,220.00 182.92,220.00
               182.92,220.00 182.34,227.00 182.34,227.00
               182.34,227.00 182.91,236.00 182.91,236.00
               182.91,236.00 182.12,244.00 182.12,244.00
               182.12,244.00 183.00,258.00 183.00,258.00
               183.00,258.00 183.00,281.00 183.00,281.00
               182.97,283.75 181.18,293.44 183.61,294.85
               185.53,295.97 188.39,293.99 190.00,293.03
               190.00,293.03 204.00,284.85 204.00,284.85
               204.00,284.85 252.00,256.80 252.00,256.80
               255.53,254.70 267.95,248.45 269.59,245.61
               271.46,242.40 270.32,238.44 270.10,235.00
               270.10,235.00 270.10,224.00 270.10,224.00
               270.10,224.00 270.10,214.00 270.10,214.00
               270.10,214.00 270.10,159.00 270.10,159.00
               270.10,159.00 270.10,140.00 270.10,140.00 Z
             M 74.00,142.00
             C 74.00,142.00 73.28,156.89 73.28,156.89
               73.28,156.89 74.00,184.00 74.00,184.00
               74.00,184.00 74.00,203.00 74.00,203.00
               74.00,203.00 73.32,214.74 73.32,214.74
               73.32,214.74 73.83,223.00 73.83,223.00
               73.83,223.00 73.25,235.42 73.25,235.42
               73.25,235.42 74.00,247.00 74.00,247.00
               74.00,247.00 97.00,259.72 97.00,259.72
               97.00,259.72 160.00,295.00 160.00,295.00
               160.00,295.00 160.00,200.00 160.00,200.00
               160.00,200.00 158.98,192.18 158.98,192.18
               158.98,192.18 140.00,179.72 140.00,179.72
               140.00,179.72 96.00,154.15 96.00,154.15
               96.00,154.15 74.00,142.00 74.00,142.00 Z" />
  </svg>
</svg>
