<svg width="32" height="32" viewBox="0 0 32 32" fill="none" xmlns="http://www.w3.org/2000/svg">
  <rect x="2" y="4" width="28" height="20" rx="2" fill="#1e1e1e" stroke="#3c3c3c" stroke-width="1"/>
  <rect x="2" y="4" width="28" height="4" rx="2" fill="#2d2d30"/>
  <rect x="2" y="6" width="28" height="2" fill="#2d2d30"/>
  <circle cx="6" cy="6" r="1" fill="#ff5f56"/>
  <circle cx="10" cy="6" r="1" fill="#ffbd2e"/>
  <circle cx="14" cy="6" r="1" fill="#27ca3f"/>
  <rect x="4" y="10" width="24" height="12" fill="#0c0c0c"/>
  <rect x="7" y="13" width="4" height="2" rx="1" fill="#4FC1FF"/>
  <line x1="11" y1="14" x2="13" y2="14" stroke="#4FC1FF" stroke-width="0.5"/>
  <polygon points="13,13.5 14,14 13,14.5" fill="#4FC1FF"/>
  <rect x="14" y="13" width="4" height="2" rx="1" fill="#4FC1FF"/>
  <line x1="18" y1="14" x2="20" y2="14" stroke="#4FC1FF" stroke-width="0.5"/>
  <polygon points="20,13.5 21,14 20,14.5" fill="#4FC1FF"/>
  <rect x="21" y="13" width="4" height="2" rx="1" fill="#4FC1FF"/>
  <text x="16" y="19" font-family="'Segoe UI', Arial, sans-serif" font-size="3" fill="#4FC1FF" text-anchor="middle">FLOW</text>
  <rect x="18" y="26" width="12" height="5" rx="1" fill="#007acc"/>
  <text x="24" y="29.5" font-family="'Segoe UI', Arial, sans-serif" font-size="2.5" font-weight="bold" fill="white" text-anchor="middle">.flow</text>
</svg>

