<?xml version="1.0" encoding="UTF-8" standalone="no"?>
<svg
   version="1.2"
   viewBox="0 0 475 487"
   width="475"
   height="487"
   id="svg2"
   sodipodi:docname="logo-icon - Copy.svg"
   inkscape:version="1.4.2 (f4327f4, 2025-05-13)"
   inkscape:export-filename="logo-icon.svg"
   inkscape:export-xdpi="96"
   inkscape:export-ydpi="96"
   xmlns:inkscape="http://www.inkscape.org/namespaces/inkscape"
   xmlns:sodipodi="http://sodipodi.sourceforge.net/DTD/sodipodi-0.dtd"
   xmlns:xlink="http://www.w3.org/1999/xlink"
   xmlns="http://www.w3.org/2000/svg"
   xmlns:svg="http://www.w3.org/2000/svg">
  <defs
     id="defs2">
    <linearGradient
       id="linearGradient6"
       inkscape:collect="always">
      <stop
         style="stop-color:#0000ff;stop-opacity:1"
         offset="0"
         id="stop5" />
      <stop
         style="stop-color:#800080;stop-opacity:1"
         offset="1"
         id="stop6" />
    </linearGradient>
    <linearGradient
       id="linearGradient2"
       inkscape:collect="always">
      <stop
         style="stop-color:#0000ff;stop-opacity:1"
         offset="0"
         id="stop2" />
      <stop
         style="stop-color:#800080;stop-opacity:1"
         offset="1"
         id="stop3" />
    </linearGradient>
    <linearGradient
       inkscape:collect="always"
       xlink:href="#linearGradient2"
       id="linearGradient3"
       x1="711.76477"
       y1="-197.14348"
       x2="-48.645805"
       y2="556.43958"
       gradientUnits="userSpaceOnUse"
       gradientTransform="translate(-3.7710087e-6)" />
    <linearGradient
       inkscape:collect="always"
       xlink:href="#linearGradient6"
       id="linearGradient4"
       x1="711.76477"
       y1="-197.14348"
       x2="-48.645805"
       y2="556.43958"
       gradientUnits="userSpaceOnUse"
       gradientTransform="translate(-3.7710087e-6)" />
  </defs>
  <sodipodi:namedview
     id="namedview2"
     pagecolor="#ffffff"
     bordercolor="#000000"
     borderopacity="0.25"
     inkscape:showpageshadow="2"
     inkscape:pageopacity="0.0"
     inkscape:pagecheckerboard="0"
     inkscape:deskcolor="#d1d1d1"
     inkscape:zoom="1.1717355"
     inkscape:cx="149.35112"
     inkscape:cy="279.49995"
     inkscape:window-width="3440"
     inkscape:window-height="1369"
     inkscape:window-x="-8"
     inkscape:window-y="-8"
     inkscape:window-maximized="1"
     inkscape:current-layer="svg2"
     showguides="true">
    <sodipodi:guide
       position="152.33814,458.40993"
       orientation="0,-1"
       id="guide2"
       inkscape:locked="false" />
    <sodipodi:guide
       position="148.49768,409.33742"
       orientation="0,-1"
       id="guide3"
       inkscape:locked="false" />
    <sodipodi:guide
       position="217.62591,183.17716"
       orientation="0,-1"
       id="guide4"
       inkscape:locked="false" />
    <sodipodi:guide
       position="253.15551,230.22367"
       orientation="0,-1"
       id="guide5"
       inkscape:locked="false" />
    <sodipodi:guide
       position="426.0774,384.80116"
       orientation="0,-1"
       id="guide6"
       inkscape:locked="false" />
    <sodipodi:guide
       position="222.52943,254.96592"
       orientation="0,-1"
       id="guide7"
       inkscape:locked="false" />
    <sodipodi:guide
       position="250.28903,302.11199"
       orientation="0,-1"
       id="guide8"
       inkscape:locked="false" />
    <sodipodi:guide
       position="83.636625,121.9432"
       orientation="1,0"
       id="guide9"
       inkscape:locked="false" />
  </sodipodi:namedview>
  <g
     id="Layer 1"
     fill="currentColor">
    <path
       id="path1"
       style="display:inline;fill:url(#linearGradient4);fill-opacity:1"
       d="m 83.630859,455.65039 c 15.304546,-11.73438 30.575951,-23.50789 45.964841,-35.13086 0.85184,-114.29882 1.70147,-228.59767 2.55469,-342.896483 47.26395,0.05786 94.52852,0.06151 141.79203,0.187549 14.20277,0.333861 28.46655,3.556378 41.01505,10.331836 11.57551,6.181241 21.51187,15.315068 28.81524,26.203628 12.798,18.99819 17.82921,42.72579 15.24877,65.3766 -1.9492,16.95638 -8.28734,33.56998 -19.0957,46.87304 -7.3914,9.19357 -16.91025,16.64422 -27.59143,21.64568 -11.71092,5.53482 -24.66471,8.15458 -37.5774,8.43605 -7.13566,0.129 -14.27407,0.0165 -21.41085,0.0417 -8.44869,-0.01 -16.8974,-0.0132 -25.3461,-0.0199 0,15.76693 0,31.53385 0,47.30078 15.83793,0.0146 31.67673,0.14378 47.51416,0.0226 1.99154,-0.0495 3.98159,-0.14365 5.97022,-0.26083 0.6206,-0.0471 1.62632,-0.11387 2.24613,-0.15675 7.89865,-0.6052 15.85571,-1.78678 23.51363,-3.562 15.81983,-3.65379 31.05692,-10.04716 44.47852,-19.2207 1.42783,-0.97499 3.01047,-2.09646 4.45796,-3.18691 13.20835,-9.85845 24.37995,-22.38773 32.80607,-36.54469 6.79776,-11.34852 11.8913,-23.69598 15.27112,-36.47934 0.17232,-0.69523 0.40855,-1.56346 0.58254,-2.28582 0.78775,-3.17527 1.5251,-6.66795 2.09129,-9.8841 2.40372,-13.67968 2.94936,-27.86681 1.56414,-41.75919 -0.17083,-1.69934 -0.35344,-3.29753 -0.58774,-5.02685 -0.73585,-5.56553 -1.79805,-11.08693 -3.15413,-16.53428 -0.16029,-0.60677 -0.41927,-1.6203 -0.57533,-2.22533 -1.91666,-7.15324 -4.36835,-14.16385 -7.36022,-20.93873 -0.31867,-0.70126 -0.75279,-1.67557 -1.13208,-2.4786 -1.0123,-2.18139 -2.09363,-4.330055 -3.21558,-6.456946 -0.45772,-0.836254 -1.0411,-1.923869 -1.56678,-2.845217 -8.72814,-15.480203 -20.69108,-29.165328 -35.06017,-39.64697 -1.32631,-0.966729 -2.84542,-2.036904 -4.28255,-2.992798 -16.79294,-11.218594 -36.30999,-18.063032 -56.26625,-20.815828 -1.47588,-0.20021 -2.909,-0.390177 -4.31762,-0.547833 -8.05019,-0.905741 -16.31406,-1.148901 -24.46987,-1.076428 -61.00051,-0.06383 -122.00107,-0.154912 -183.001601,-0.229222 0.04167,142.261072 0.08333,284.522132 0.125,426.783202 z" />
    <path
       id="path2"
       style="fill:url(#linearGradient3);fill-opacity:1"
       d="m 155.89258,399.33203 c 16.23768,-12.64157 32.425,-25.34769 48.62695,-38.03515 0.1,-66.15269 0.18725,-132.30698 -0.38335,-198.45794 -0.0427,-4.27965 -0.0868,-8.55928 -0.12837,-12.83894 19.39834,-0.0647 38.798,-0.21708 58.1957,-0.16898 6.16759,0.29097 12.41336,3.2736 15.77989,8.58146 3.76249,5.72915 3.77526,13.87966 -0.54199,19.32385 -3.56061,4.55416 -9.41639,6.77242 -15.07422,6.95117 -5.11542,0.18115 -10.23601,0.0822 -15.35344,0.17417 -6.33792,0.0461 -12.67583,0.0922 -19.01375,0.13833 0.0176,15.69531 0.0352,31.39062 0.0527,47.08594 12.29581,-0.0617 24.59415,0.011 36.88799,-0.20579 2.12953,-0.10435 4.07683,-0.29276 6.19687,-0.56748 9.35037,-1.24473 18.52384,-4.3277 26.45616,-9.48259 0.28997,-0.20153 1.18328,-0.79076 1.45451,-0.97401 10.55984,-7.2956 18.455,-18.17896 22.59086,-30.2917 1.96252,-5.6455 3.16662,-11.54887 3.63432,-17.50578 0.0244,-0.4392 0.0795,-1.06885 0.102,-1.55977 0.1376,-2.38685 0.14341,-4.78018 0.0464,-7.16874 -0.0451,-0.86315 -0.10907,-2.00371 -0.19506,-2.97516 -0.13556,-1.58375 -0.32098,-3.12532 -0.54518,-4.6225 -2.01045,-13.33041 -7.90191,-26.21781 -17.42654,-35.8528 -1.90457,-1.94075 -3.94995,-3.74133 -6.09885,-5.40696 -0.56012,-0.41786 -1.3578,-1.02885 -2.0335,-1.49396 -1.93119,-1.36573 -3.94749,-2.6098 -6.02705,-3.73651 -0.82324,-0.44559 -1.89861,-0.99641 -2.84393,-1.43977 -3.35996,-1.58815 -7.08466,-2.93619 -10.76442,-3.92094 -7.60651,-2.06334 -15.52779,-2.71038 -23.38774,-2.56434 C 222.73308,102.21143 189.36654,102.10571 156,102 c -0.0358,99.11068 -0.0716,198.22135 -0.10742,297.33203 z" />
  </g>
</svg>
