<svg version="1.2" xmlns="http://www.w3.org/2000/svg" viewBox="0 0 475 487" width="475" height="487">
	<g id="Layer 1" fill="currentColor">
		<path d="m99.75 29.87c1.12-0.01 1.12-0.01 2.27-0.01q3.74-0.01 7.49-0.01 2.69 0 5.39-0.01 7.3-0.01 14.61-0.01 4.57 0 9.15 0 15.99-0.02 31.97-0.02 14.86 0 29.71-0.02 12.79-0.02 25.57-0.02 7.62 0 15.25-0.01 7.18-0.02 14.36 0 2.62 0 5.23-0.01c14.37-0.05 28.83 0.55 42.75 4.44q1.17 0.32 2.37 0.65c28.25 8.04 53.65 25.22 71.19 48.91q0.78 1.05 1.58 2.13c4 5.47 7.47 10.98 10.36 17.12q0.41 0.87 0.84 1.76c17.05 36.24 18.58 74.86 5.33 112.61-3.65 9.95-8.19 18.86-14.17 27.63q-0.92 1.4-1.87 2.84c-20.76 29.59-50.85 47.66-85.82 54.77-7.77 1.3-15.25 1.52-23.12 1.49q-1.81 0-3.67-0.01-5.76-0.01-11.52-0.03-3.92-0.01-7.84-0.01-9.58-0.02-19.16-0.05c0-15.51 0-31.02 0-47 3.47-0.03 6.95-0.05 10.52-0.08q5.14-0.06 10.28-0.13 3.53-0.04 7.05-0.06c32.13-0.21 55.68-6.74 79.05-29.59 7.59-8.05 12.57-18.14 16.48-28.39q0.35-0.93 0.72-1.89c7.89-21.9 5.58-47.13-3.76-68.13-4.11-8.39-9.26-15.65-15.34-22.73q-0.76-0.9-1.54-1.83c-15.14-16.58-38.39-24.82-60.22-25.98-11.3-0.48-22.62-0.31-33.92-0.29q-5.57 0.01-11.14 0.01-10.51 0-21.01 0.02-11.98 0.01-23.96 0.02-24.61 0.02-49.21 0.05c0.01 1.07 0.01 1.07 0.01 2.17q0.38 63.68 0.55 127.36 0.02 7.65 0.04 15.29 0.01 1.52 0.01 3.08 0.08 24.65 0.24 49.3 0.15 25.29 0.18 50.58 0.03 15.6 0.16 31.21 0.08 10.7 0.06 21.4-0.02 6.17 0.06 12.35 0.08 5.65 0.02 11.31 0 3.01 0.09 6.02c-0.16 8.6-0.16 8.6-3.82 12.45-2.79 2.04-5.6 3.77-8.6 5.48q-1.98 1.48-3.9 3.05-0.86 0.7-1.74 1.41c-0.86 0.7-0.86 0.7-1.73 1.42q-8.77 7.06-17.73 13.87c-2.11 1.63-4.13 3.3-6.15 5.04-2.75 2.21-2.75 2.21-4.75 2.21-1.16-3.68-1.12-7.13-1.12-10.97q0-1.05 0-2.12 0-3.52 0.01-7.04 0.01-2.52 0.01-5.03 0-6.83 0.02-13.66 0.01-7.23 0.02-14.47 0.02-16.43 0.05-32.87 0.01-4.1 0.02-8.2 0.07-33.95 0.18-67.89 0.05-13.56 0.09-27.13 0.07-24.15 0.15-48.31 0.07-23.35 0.14-46.71 0.01-1.45 0.01-2.94 0.02-7.33 0.05-14.65 0.18-60 0.37-120.01c4.95-0.81 9.74-1.15 14.75-1.13z"/>
		<path d="m156 102c138.71 0 138.71 0 157.31 18.28q1.32 1.34 2.69 2.72c1.04 1.02 1.04 1.02 2.1 2.07 11.46 12.06 15.55 28.79 15.3 45.01-0.63 17.25-7.22 32.57-19.4 44.92-10.34 9.39-24.12 16.93-38.33 17.22q-1.54 0.04-3.14 0.07-1.65 0.03-3.36 0.06c-1.72 0.04-1.72 0.04-3.47 0.07q-3.62 0.07-7.24 0.14-5.57 0.1-11.13 0.22-3.52 0.07-7.03 0.13c-1.68 0.04-1.68 0.04-3.39 0.08q-1.53 0.02-3.1 0.05c-1.36 0.02-1.36 0.02-2.75 0.05-2.06-0.09-2.06-0.09-3.06-1.09q-0.13-2.21-0.11-4.43c0-1.41 0-1.41 0-2.85q0-1.53 0.01-3.1 0-1.55 0.01-3.16 0.01-5.01 0.03-10.02 0.01-3.39 0.01-6.78 0.02-8.33 0.05-16.66 0.81-0.01 1.65-0.01 8.57-0.07 17.14-0.2 3.19-0.04 6.38-0.06 4.6-0.04 9.2-0.12c1.42 0 1.42 0 2.86 0 6-0.14 10.81-1.07 15.77-4.61 4.2-5.27 5.45-9.29 5-16-1.7-5.19-3.8-8.5-8-12-4.05-2.04-7.4-2.24-11.9-2.23q-1.01 0-2.04 0-3.32 0.01-6.64 0.03-2.31 0.01-4.62 0.01-6.07 0.02-12.13 0.05-6.19 0.03-12.39 0.04-12.14 0.04-24.28 0.1 0.01 1.62 0.01 3.28 0.13 39.52 0.2 79.05 0.03 19.11 0.09 38.22 0.06 16.65 0.08 33.31 0 8.82 0.04 17.64 0.04 8.3 0.03 16.6 0 3.05 0.03 6.1 0.02 4.15 0 8.31 0.02 1.21 0.04 2.45c-0.04 3.55-0.17 5.59-2.39 8.44q-1.05 0.79-2.13 1.6c-1.29 1.03-1.29 1.03-2.6 2.09q-1.49 1.12-3.03 2.29-1.73 1.31-3.46 2.63c-0.93 0.71-0.93 0.71-1.89 1.44q-5.65 4.34-11.27 8.74-1.09 0.85-2.22 1.72-1.07 0.84-2.17 1.7-1.06 0.82-2.15 1.66-2.33 1.82-4.62 3.68-1.17 0.94-2.39 1.91-1.06 0.86-2.15 1.75c-2.05 1.39-2.05 1.39-6.05 2.39 0-97.35 0-194.7 0-295z"/>
	</g>
</svg>
