<?xml version="1.0" encoding="UTF-8"?>
<svg version="1.1" xmlns="http://www.w3.org/2000/svg" width="475" height="487">
<path d="M0 0 C1.12416531 -0.00339833 1.12416531 -0.00339833 2.27104104 -0.00686532 C4.76625076 -0.01316273 7.26140556 -0.01237869 9.75662231 -0.0115509 C11.55270965 -0.01454523 13.34879635 -0.01794839 15.1448822 -0.02172852 C20.01529197 -0.03054923 24.88568415 -0.03290594 29.75610113 -0.0335443 C32.80578766 -0.0342564 35.85546976 -0.03639385 38.90515518 -0.03904152 C49.56479423 -0.04829166 60.22442079 -0.05237721 70.88406372 -0.05158997 C80.78535137 -0.05099068 90.68658427 -0.06151397 100.58785808 -0.07733363 C109.11303774 -0.09046406 117.63819965 -0.0957715 126.16338933 -0.09513456 C131.24381188 -0.09488099 136.32418585 -0.09765273 141.40459824 -0.10831261 C146.19318037 -0.11808548 150.98166844 -0.11801067 155.77025414 -0.11079597 C157.51435803 -0.10976113 159.25846807 -0.11204636 161.00256157 -0.11815643 C175.37127399 -0.16517624 189.82741397 0.43080173 203.7492981 4.32121277 C204.5320813 4.53551941 205.3148645 4.74982605 206.12136841 4.97062683 C234.36626403 13.01297125 259.77284201 30.19473313 277.3117981 53.88371277 C277.83346558 54.58689636 278.35513306 55.29007996 278.89260864 56.01457214 C282.88873708 61.48368265 286.35871711 66.99538132 289.2492981 73.13371277 C289.525802 73.71556335 289.80230591 74.29741394 290.08718872 74.89689636 C307.14083426 111.1312489 308.66998461 149.74894503 295.415802 187.50822449 C291.77245057 197.45335873 287.22866648 206.36850229 281.2492981 215.13371277 C280.6305481 216.06957214 280.0117981 217.00543152 279.3742981 217.96965027 C258.61462115 247.56840842 228.52817454 265.63466992 193.55593872 272.74821472 C185.78666849 274.04665648 178.30761591 274.26633603 170.4367981 274.23136902 C169.22733521 274.22995407 168.01787231 274.22853912 166.77175903 274.2270813 C162.93091294 274.22150986 159.09012639 274.20896261 155.2492981 274.19621277 C152.63601769 274.19119408 150.02273637 274.18663182 147.40945435 274.18254089 C141.02269452 274.17240318 134.63606251 274.1528221 128.2492981 274.13371277 C128.2492981 258.62371277 128.2492981 243.11371277 128.2492981 227.13371277 C131.72203247 227.10793152 135.19476685 227.08215027 138.7727356 227.05558777 C142.19859348 227.01699248 145.62430964 226.97188901 149.05007935 226.92619324 C151.4005945 226.89825679 153.75119884 226.87690896 156.10183716 226.86271667 C188.22621293 226.65731785 211.77774356 220.12028352 235.15164185 197.27433777 C242.73641101 189.22519498 247.72357904 179.13577487 251.6242981 168.88371277 C251.86285522 168.25916199 252.10141235 167.63461121 252.34719849 166.99113464 C260.24422447 145.0952245 257.92562921 119.86808975 248.58914185 98.86808777 C244.47783549 90.47766664 239.33100826 83.2130157 233.2492981 76.13371277 C232.74140747 75.52914246 232.23351685 74.92457214 231.7102356 74.30168152 C216.57220492 57.7274787 193.31808834 49.48444429 171.48855591 48.32344055 C160.1929998 47.84445138 148.87206343 48.00976172 137.5684967 48.03231883 C133.85565375 48.03864344 130.14280967 48.03916327 126.42996216 48.04034424 C119.42520905 48.04343105 112.42047186 48.05160807 105.41572571 48.06169373 C97.4300191 48.07293798 89.44431166 48.0783861 81.45859909 48.08338916 C65.05548949 48.09379343 48.65239584 48.1113406 32.2492981 48.13371277 C32.25556348 49.20830065 32.25556348 49.20830065 32.26195544 50.30459738 C32.50808491 92.75862321 32.69683485 135.21256627 32.81101672 177.66716203 C32.82477458 182.76408639 32.83901212 187.86100931 32.85354614 192.95793152 C32.85643156 193.97264206 32.85931697 194.9873526 32.86228982 196.03281194 C32.91016173 212.46554236 32.99689562 228.89784972 33.09797885 245.33032912 C33.20082614 262.19012637 33.26194037 279.04970197 33.28427154 295.90980005 C33.29936945 306.31466494 33.34706029 316.71833411 33.43637923 327.12283093 C33.4945017 334.25649719 33.51210507 341.38954487 33.49781325 348.52343076 C33.49076284 352.64058377 33.501605 356.7556471 33.56055832 360.87242889 C33.61417183 364.64388491 33.61675721 368.41185144 33.57918594 372.18346959 C33.57235001 374.18992683 33.61973937 376.19634392 33.66919249 378.20220327 C33.51220051 386.8059291 33.51220051 386.8059291 29.84900248 390.65732288 C27.06428575 392.69685669 24.24601966 394.42706517 21.2492981 396.13371277 C19.9290209 397.12482572 18.6237509 398.13712152 17.3508606 399.18840027 C16.77585815 399.65302673 16.20085571 400.1176532 15.60842896 400.59635925 C14.75003418 401.29547424 14.75003418 401.29547424 13.8742981 402.00871277 C8.03453401 406.72518503 2.12617171 411.33547299 -3.84835815 415.87980652 C-5.95673729 417.5171346 -7.97747337 419.1793802 -9.99679565 420.91886902 C-12.7507019 423.13371277 -12.7507019 423.13371277 -14.7507019 423.13371277 C-15.90808295 419.45868691 -15.87246422 416.00061351 -15.86769867 412.16457081 C-15.86819032 411.46342034 -15.86868197 410.76226988 -15.86918852 410.03987243 C-15.86959543 407.69391094 -15.86282313 405.34802612 -15.85604858 403.0020752 C-15.85481756 401.32643912 -15.85401554 399.65080268 -15.85361195 397.9751662 C-15.85120152 393.42292139 -15.8424643 388.87070808 -15.83252776 384.31847428 C-15.82300174 379.49440836 -15.81906641 374.67033735 -15.81429291 369.84626484 C-15.80215979 358.8899991 -15.78071559 347.93376189 -15.75683355 336.97751623 C-15.75093489 334.24176816 -15.74530573 331.5060197 -15.73979568 328.77027082 C-15.69413949 306.14115217 -15.62998907 283.51211068 -15.55715951 260.88306455 C-15.52810741 251.84107098 -15.50063833 242.79907274 -15.47319871 233.75707415 C-15.42429359 217.65418291 -15.3742679 201.55129537 -15.32345581 185.44841003 C-15.27432682 169.87809943 -15.22577652 154.30778719 -15.177948 138.73747253 C-15.174961 137.7651345 -15.17197401 136.79279647 -15.1688965 135.79099365 C-15.15390346 130.90930188 -15.1389212 126.02761007 -15.12394428 121.14591825 C-15.00119897 81.1418445 -14.87660126 41.13777671 -14.7507019 1.13371277 C-9.80434161 0.32728672 -5.01508078 -0.01129095 0 0 Z " fill="currentColor" transform="translate(99.75070190429688,29.866287231445313)"/>
<path d="M0 0 C138.71314145 0 138.71314145 0 157.30859375 18.27734375 C158.19675781 19.17582031 159.08492187 20.07429688 160 21 C161.03833984 22.02287109 161.03833984 22.02287109 162.09765625 23.06640625 C173.55649462 35.12966686 177.64680687 51.86273101 177.40014648 68.08105469 C176.77217991 85.32827034 170.17563693 100.65260644 158 113 C147.66319316 122.38750825 133.88484039 129.93125168 119.67480469 130.22119141 C118.63733093 130.24436432 117.59985718 130.26753723 116.53094482 130.29141235 C115.42245178 130.3112619 114.31395874 130.33111145 113.171875 130.3515625 C111.45475311 130.38629166 111.45475311 130.38629166 109.70294189 130.42172241 C107.28898356 130.46926365 104.87497907 130.5145093 102.4609375 130.55761719 C98.74982259 130.62500322 95.03901788 130.70267101 91.328125 130.78125 C88.98438677 130.82613946 86.64063699 130.87043116 84.296875 130.9140625 C82.62199005 130.94990952 82.62199005 130.94990952 80.91326904 130.98648071 C79.88840393 131.0033493 78.86353882 131.0202179 77.80761719 131.03759766 C76.44790802 131.06305161 76.44790802 131.06305161 75.06072998 131.08901978 C73 131 73 131 72 130 C71.90695982 128.52645652 71.88253735 127.04849409 71.88647461 125.57202148 C71.88658791 124.16067177 71.88658791 124.16067177 71.88670349 122.72080994 C71.89186478 121.69790359 71.89702606 120.67499725 71.90234375 119.62109375 C71.9037587 118.57929459 71.90517365 117.53749542 71.90663147 116.46412659 C71.9122492 113.12188906 71.9248047 109.77971743 71.9375 106.4375 C71.94251272 104.17773534 71.94707602 101.91796963 71.95117188 99.65820312 C71.96222439 94.10544609 71.97897976 88.55272775 72 83 C72.54599854 82.99635437 73.09199707 82.99270874 73.65454102 82.98895264 C79.36565886 82.94696349 85.0759853 82.87750452 90.78662109 82.79248047 C92.91447005 82.76435057 95.04242194 82.74309654 97.17041016 82.72900391 C100.2391398 82.70746392 103.30664211 82.66075629 106.375 82.609375 C107.78954468 82.60753204 107.78954468 82.60753204 109.23266602 82.60565186 C115.23137479 82.47427074 120.0402179 81.54096041 125 78 C129.19659702 72.72735246 130.44701486 68.70522285 130 62 C128.29961126 56.80933963 126.20003045 53.50002537 122 50 C117.95072319 47.96416765 114.60104715 47.75648612 110.09838867 47.77294922 C109.42466217 47.77265717 108.75093567 47.77236511 108.05679321 47.77206421 C105.84371786 47.77345062 103.63098484 47.78897889 101.41796875 47.8046875 C99.87811975 47.80842009 98.33826837 47.8112659 96.79841614 47.81326294 C92.75584292 47.82088006 88.71341461 47.84051192 84.67089844 47.8626709 C80.5416866 47.88317082 76.41245124 47.89227351 72.28320312 47.90234375 C64.18873577 47.92375974 56.09438594 47.95787234 48 48 C48.00368717 49.08375034 48.00737434 50.16750069 48.01117325 51.28409195 C48.09989741 77.63126272 48.16566778 103.97841416 48.20724869 130.32570267 C48.2278904 143.06696119 48.25604182 155.80812114 48.30175781 168.54931641 C48.34157622 179.65210908 48.36742109 190.75483039 48.37635398 201.85769248 C48.38157717 207.73879819 48.39388713 213.61969968 48.42292023 219.50074005 C48.45001028 225.0328579 48.45845793 230.56468682 48.45243073 236.0968647 C48.45353383 238.13024781 48.46152565 240.16364029 48.4768219 242.19696617 C48.49664944 244.96787097 48.49196568 247.73767708 48.48101807 250.50860596 C48.49266943 251.31794468 48.5043208 252.12728341 48.51632524 252.96114755 C48.47825318 256.51279931 48.34791318 258.55281098 46.13253403 261.40034103 C45.4287978 261.92822849 44.72506157 262.45611595 44 263 C42.71222656 264.03253906 42.71222656 264.03253906 41.3984375 265.0859375 C40.40070313 265.84132813 39.40296875 266.59671875 38.375 267.375 C37.22092465 268.25334219 36.06730563 269.13228417 34.9140625 270.01171875 C33.97868652 270.72400635 33.97868652 270.72400635 33.02441406 271.45068359 C29.24871133 274.34028918 25.50080482 277.2656972 21.75 280.1875 C21.0182959 280.75710449 20.2865918 281.32670898 19.53271484 281.91357422 C18.8155127 282.47189941 18.09831055 283.03022461 17.359375 283.60546875 C16.64845703 284.15638184 15.93753906 284.70729492 15.20507812 285.27490234 C13.6569496 286.48604895 12.12008941 287.7116714 10.59179688 288.94775391 C9.80353516 289.57987793 9.01527344 290.21200195 8.203125 290.86328125 C7.49317383 291.43989502 6.78322266 292.01650879 6.05175781 292.6105957 C4 294 4 294 0 295 C0 197.65 0 100.3 0 0 Z " fill="currentColor" transform="translate(156,102)"/>
<path d="M0 0 C1.35354584 -0.00639748 1.35354584 -0.00639748 2.73443604 -0.01292419 C3.73271423 -0.01247101 4.73099243 -0.01201782 5.75952148 -0.0115509 C6.8052533 -0.01490952 7.85098511 -0.01826813 8.92840576 -0.02172852 C12.41248746 -0.03128389 15.89652121 -0.03318493 19.38061523 -0.03425598 C21.8046877 -0.03746902 24.22875997 -0.04083313 26.65283203 -0.04434204 C31.75415495 -0.05034727 36.8554609 -0.05218088 41.95678711 -0.05158997 C48.45358276 -0.05148909 54.95026727 -0.06505716 61.44703674 -0.08236217 C66.46606938 -0.09356309 71.48507602 -0.09550659 76.50411987 -0.09498024 C78.89598976 -0.09615144 81.28786052 -0.10052422 83.67971802 -0.10831261 C100.05497366 -0.15657571 116.41543373 -0.12272363 132.31811523 4.32121277 C133.10089844 4.53551941 133.88368164 4.74982605 134.69018555 4.97062683 C162.93508117 13.01297125 188.34165915 30.19473313 205.88061523 53.88371277 C206.40228271 54.58689636 206.9239502 55.29007996 207.46142578 56.01457214 C211.45755422 61.48368265 214.92753425 66.99538132 217.81811523 73.13371277 C218.09461914 73.71556335 218.37112305 74.29741394 218.65600586 74.89689636 C233.58364793 106.6140705 236.8018065 140.50025838 228.50561523 174.63371277 C228.31717041 175.45371765 228.12872559 176.27372253 227.93457031 177.11857605 C227.37158317 179.25642709 226.8267854 181.16625491 225.81811523 183.13371277 C223.15014648 184.66496277 223.15014648 184.66496277 220.81811523 185.13371277 C221.47811523 181.83371277 222.13811523 178.53371277 222.81811523 175.13371277 C223.47811523 175.13371277 224.13811523 175.13371277 224.81811523 175.13371277 C224.96249023 174.41183777 225.10686523 173.68996277 225.25561523 172.94621277 C225.62260591 171.11125938 225.99725632 169.27781645 226.38061523 167.44621277 C226.88007912 165.1984429 226.88007912 165.1984429 226.81811523 163.13371277 C227.47811523 163.13371277 228.13811523 163.13371277 228.81811523 163.13371277 C228.78717773 161.30840027 228.78717773 161.30840027 228.75561523 159.44621277 C228.74416263 155.73556814 229.00193381 152.13592923 229.38061523 148.44621277 C229.90908645 142.16410424 229.73258511 135.99049961 229.44311523 129.69621277 C229.40001221 128.74851013 229.35690918 127.8008075 229.3125 126.8243866 C229.07188937 122.1927348 228.71661903 117.69476169 227.81811523 113.13371277 C227.48811523 113.13371277 227.15811523 113.13371277 226.81811523 113.13371277 C227.14811523 110.82371277 227.47811523 108.51371277 227.81811523 106.13371277 C226.82811523 105.80371277 225.83811523 105.47371277 224.81811523 105.13371277 C224.4847819 103.80037944 224.15144857 102.4670461 223.81811523 101.13371277 C222.82811523 100.80371277 221.83811523 100.47371277 220.81811523 100.13371277 C221.00374023 99.06121277 221.18936523 97.98871277 221.38061523 96.88371277 C221.92622896 92.20702365 220.91398516 89.20989518 219.25561523 84.88371277 C218.98620117 84.17730652 218.71678711 83.47090027 218.43920898 82.74308777 C218.23424805 82.21199402 218.02928711 81.68090027 217.81811523 81.13371277 C216.33311523 82.12371277 216.33311523 82.12371277 214.81811523 83.13371277 C212.2533749 80.56897243 212.50902685 79.31921434 212.31811523 75.75871277 C212.11818467 72.05000083 211.8713863 69.28298663 209.81811523 66.13371277 C208.82811523 65.47371277 207.83811523 64.81371277 206.81811523 64.13371277 C206.81811523 63.47371277 206.81811523 62.81371277 206.81811523 62.13371277 C206.15811523 62.13371277 205.49811523 62.13371277 204.81811523 62.13371277 C204.48811523 60.81371277 204.15811523 59.49371277 203.81811523 58.13371277 C202.49811523 58.46371277 201.17811523 58.79371277 199.81811523 59.13371277 C198.82811523 56.16371277 197.83811523 53.19371277 196.81811523 50.13371277 C195.82811523 50.13371277 194.83811523 50.13371277 193.81811523 50.13371277 C193.15811523 49.14371277 192.49811523 48.15371277 191.81811523 47.13371277 C191.81811523 48.12371277 191.81811523 49.11371277 191.81811523 50.13371277 C190.82811523 50.13371277 189.83811523 50.13371277 188.81811523 50.13371277 C187.81811523 47.13371277 187.81811523 47.13371277 188.75561523 44.94621277 C189.10624023 44.34808777 189.45686523 43.74996277 189.81811523 43.13371277 C189.15811523 42.47371277 188.49811523 41.81371277 187.81811523 41.13371277 C187.48811523 41.46371277 187.15811523 41.79371277 186.81811523 42.13371277 C185.15194408 42.17435109 183.48423429 42.17643377 181.81811523 42.13371277 C182.14811523 39.82371277 182.47811523 37.51371277 182.81811523 35.13371277 C182.15811523 35.13371277 181.49811523 35.13371277 180.81811523 35.13371277 C180.81811523 34.47371277 180.81811523 33.81371277 180.81811523 33.13371277 C179.86936523 33.33996277 178.92061523 33.54621277 177.94311523 33.75871277 C176.91186523 33.88246277 175.88061523 34.00621277 174.81811523 34.13371277 C174.15811523 33.47371277 173.49811523 32.81371277 172.81811523 32.13371277 C172.81811523 31.14371277 172.81811523 30.15371277 172.81811523 29.13371277 C170.83811523 28.14371277 170.83811523 28.14371277 168.81811523 27.13371277 C169.47811523 26.47371277 170.13811523 25.81371277 170.81811523 25.13371277 C170.15811523 25.13371277 169.49811523 25.13371277 168.81811523 25.13371277 C167.82811523 26.61871277 167.82811523 26.61871277 166.81811523 28.13371277 C166.15811523 28.13371277 165.49811523 28.13371277 164.81811523 28.13371277 C165.00374023 27.20558777 165.18936523 26.27746277 165.38061523 25.32121277 C166.05935405 22.12027506 166.05935405 22.12027506 164.81811523 19.13371277 C163.49811523 19.13371277 162.17811523 19.13371277 160.81811523 19.13371277 C160.81811523 18.47371277 160.81811523 17.81371277 160.81811523 17.13371277 C160.21999023 17.29871277 159.62186523 17.46371277 159.00561523 17.63371277 C155.79131828 18.36840922 152.83221777 18.49492037 149.81811523 17.13371277 C148.56811523 14.07121277 148.56811523 14.07121277 147.81811523 11.13371277 C146.16811523 11.13371277 144.51811523 11.13371277 142.81811523 11.13371277 C142.81811523 10.47371277 142.81811523 9.81371277 142.81811523 9.13371277 C142.15424805 9.20590027 141.49038086 9.27808777 140.80639648 9.35246277 C139.48188477 9.49168152 139.48188477 9.49168152 138.13061523 9.63371277 C137.26049805 9.72652527 136.39038086 9.81933777 135.49389648 9.91496277 C128.52075012 10.48503021 128.52075012 10.48503021 125.81811523 9.13371277 C124.84874023 9.31933777 123.87936523 9.50496277 122.88061523 9.69621277 C119.81811523 10.13371277 119.81811523 10.13371277 116.81811523 8.13371277 C116.81811523 6.81371277 116.81811523 5.49371277 116.81811523 4.13371277 C95.82724983 3.17452647 74.88117087 2.99644216 53.87235928 3.03231883 C49.49093734 3.03869129 45.10951424 3.03916689 40.72808838 3.04034424 C32.48063553 3.04341751 24.23319638 3.05157524 15.98574948 3.06169373 C6.57536575 3.07298137 -2.83501873 3.07839676 -12.24540758 3.08338916 C-31.55757433 3.09376258 -50.86972844 3.11128199 -70.18188477 3.13371277 C-70.18188477 2.80371277 -70.18188477 2.47371277 -70.18188477 2.13371277 C-69.36978043 2.1234053 -68.55767609 2.11309784 -67.72096252 2.10247803 C-60.08351988 2.00467297 -52.44616155 1.90218329 -44.8088541 1.79437351 C-40.88203863 1.73910862 -36.95521576 1.68568307 -33.02832031 1.63639832 C-29.24167635 1.58880715 -25.4551256 1.53646653 -21.66859245 1.48077202 C-20.22086839 1.46032459 -18.77311873 1.44161553 -17.32534981 1.42463875 C-15.30424318 1.40064768 -13.28321866 1.37001202 -11.26220703 1.33903503 C-10.10970963 1.32349075 -8.95721222 1.30794647 -7.76979065 1.29193115 C-4.74877417 1.10723342 -3.23673436 0.00688204 0 0 Z " fill="currentColor" transform="translate(171.181884765625,29.866287231445313)"/>
<path d="M0 0 C1.98 0 3.96 0 6 0 C6.33 0.99 6.66 1.98 7 3 C8.216875 2.979375 9.43375 2.95875 10.6875 2.9375 C13.93006017 2.9317711 16.83069955 3.27558847 20 4 C20.99 4 21.98 4 23 4 C23.33 4.66 23.66 5.32 24 6 C27.68187245 7.11150866 31.20902095 7.89678439 35.0234375 8.39453125 C41.44703973 9.24308117 44.66426856 9.87595376 49 15 C51.67790896 15.87238858 51.67790896 15.87238858 54 16 C54 16.66 54 17.32 54 18 C54.66 18 55.32 18 56 18 C56 18.66 56 19.32 56 20 C56.66 20 57.32 20 58 20 C58.33 19.01 58.66 18.02 59 17 C61 18.8125 61 18.8125 63 21 C63 21.99 63 22.98 63 24 C65.64 24 68.28 24 71 24 C70.938125 25.258125 70.87625 26.51625 70.8125 27.8125 C70.76367078 31.16958979 70.76367078 31.16958979 72.5 34 C72.995 34.33 73.49 34.66 74 35 C74.99 34.01 74.99 34.01 76 33 C76.33 33.99 76.66 34.98 77 36 C77.66 36.33 78.32 36.66 79 37 C79.45703125 39.1796875 79.45703125 39.1796875 79.8125 41.875 C80.23070688 44.58865685 80.23070688 44.58865685 81 47 C83.51364756 48.82619087 83.51364756 48.82619087 86 50 C86.125 52.1875 86.125 52.1875 86 55 C86.48541344 57.10389799 86.48541344 57.10389799 87.25 59.25 C87.48203125 59.93578125 87.7140625 60.6215625 87.953125 61.328125 C88.87485002 63.20305977 88.87485002 63.20305977 91.03515625 63.63671875 C91.68355469 63.75660156 92.33195313 63.87648437 93 64 C95.61910994 67.4461973 95.58298425 71.8298425 96 76 C95.01 76.66 94.02 77.32 93 78 C93.99 78.99 94.98 79.98 96 81 C95.34 81 94.68 81 94 81 C94.0407666 81.73524902 94.0815332 82.47049805 94.12353516 83.22802734 C94.30364855 86.60980239 94.46443762 89.99224253 94.625 93.375 C94.68945312 94.53128906 94.75390625 95.68757813 94.8203125 96.87890625 C95.13807004 103.90929193 94.79825688 110.18298934 93 117 C93.66 117 94.32 117 95 117 C96 120 96 120 94.8125 123.625 C93 127 93 127 90.88671875 127.7109375 C90.26410156 127.80632812 89.64148438 127.90171875 89 128 C88.86722656 128.60328125 88.73445312 129.2065625 88.59765625 129.828125 C88.42105469 130.62734375 88.24445313 131.4265625 88.0625 132.25 C87.88847656 133.03890625 87.71445312 133.8278125 87.53515625 134.640625 C87.19019979 136.16145494 86.80484531 137.67395035 86.37109375 139.171875 C85.78682219 141.08715043 85.78682219 141.08715043 87 143 C86.05125 143.268125 85.1025 143.53625 84.125 143.8125 C80.74732727 144.74986588 80.74732727 144.74986588 79 148 C79 148.99 79 149.98 79 151 C78.34 151.99 77.68 152.98 77 154 C77.66 154.99 78.32 155.98 79 157 C76 158 76 158 74 158 C70.80439959 162.06573561 70.80439959 162.06573561 70 167 C68.02 167.33 66.04 167.66 64 168 C64 167.01 64 166.02 64 165 C61.525 165.99 61.525 165.99 59 167 C59.66 168.32 60.32 169.64 61 171 C56.67435795 172.58255197 52.571279 173.45144652 48 174 C50.43212271 171.37523391 53.12135859 169.46456005 56.0625 167.4375 C71.18188768 156.46150183 80.72541263 142.48874352 87 125 C87.41378906 123.84886719 87.82757813 122.69773437 88.25390625 121.51171875 C95.3080972 98.23534653 91.82322907 72.69492028 80.62890625 51.390625 C77.02665696 45.10377259 72.71562004 39.48913084 68 34 C67.49210938 33.39542969 66.98421875 32.79085937 66.4609375 32.16796875 C51.32290682 15.59376593 28.06879024 7.35073152 6.23925781 6.18972778 C-5.0562983 5.71073861 -16.37723466 5.87604895 -27.68080139 5.89860606 C-31.39364434 5.90493067 -35.10648843 5.90545051 -38.81933594 5.90663147 C-45.82408905 5.90971828 -52.82882623 5.91789531 -59.83357239 5.92798096 C-67.81927899 5.93922521 -75.80498643 5.94467333 -83.79069901 5.94967639 C-100.19380861 5.96008066 -116.59690226 5.97762783 -133 6 C-133 5.67 -133 5.34 -133 5 C-131.70900391 4.97494385 -130.41800781 4.9498877 -129.08789062 4.92407227 C-124.27204433 4.82949433 -119.45632544 4.72939907 -114.640625 4.62768555 C-112.56122836 4.58452643 -110.4818006 4.54283899 -108.40234375 4.50268555 C-105.4035507 4.4445193 -102.40491152 4.38096138 -99.40625 4.31640625 C-98.48509399 4.29969376 -97.56393799 4.28298126 -96.61486816 4.26576233 C-92.69161078 4.1768728 -88.84741341 4.03105593 -84.95898438 3.48632812 C-80.35671702 2.92097806 -75.8801604 2.87441083 -71.25 2.90234375 C-70.35128174 2.9037587 -69.45256348 2.90517365 -68.52661133 2.90663147 C-65.68437225 2.91218417 -62.84221487 2.92472763 -60 2.9375 C-58.06119906 2.94252112 -56.12239688 2.94708295 -54.18359375 2.95117188 C-49.45569817 2.96213806 -44.72786289 2.97936956 -40 3 C-40 2.67 -40 2.34 -40 2 C-35.38 2 -30.76 2 -26 2 C-26 2.66 -26 3.32 -26 4 C-22.39552566 3.8612119 -18.79151288 3.71276065 -15.1875 3.5625 C-14.16333984 3.52318359 -13.13917969 3.48386719 -12.08398438 3.44335938 C-11.10107422 3.40146484 -10.11816406 3.35957031 -9.10546875 3.31640625 C-7.74651489 3.26141968 -7.74651489 3.26141968 -6.36010742 3.20532227 C-3.84951218 3.0791795 -3.84951218 3.0791795 -1 2 C-0.67 1.34 -0.34 0.68 0 0 Z M60 19 C61 21 61 21 61 21 Z " fill="currentColor" transform="translate(265,72)"/>
<path d="M0 0 C0.33 0 0.66 0 1 0 C1.36107438 15.6661181 1.69074588 31.33277489 2 47 C2.02216583 48.10987022 2.04433167 49.21974045 2.06716919 50.3632431 C2.33121158 63.68781401 2.54440873 77.01137345 2.65195465 90.33820152 C2.69908294 96.02615465 2.76887271 101.71216739 2.88476562 107.39916992 C2.99916432 113.04918485 3.05985029 118.69742587 3.0825882 124.34852791 C3.10025923 126.46618241 3.13685354 128.5837748 3.19359589 130.70074272 C3.6120193 146.97976734 3.6120193 146.97976734 -0.38723755 151.99176025 C-3.18125607 154.04313111 -5.87249339 155.52669066 -9 157 C-10.32900543 157.97937802 -11.63662418 158.99013883 -12.8984375 160.0546875 C-13.76094116 160.7516272 -13.76094116 160.7516272 -14.64086914 161.46264648 C-15.21313232 161.92872314 -15.78539551 162.3947998 -16.375 162.875 C-22.21476408 167.59147227 -28.12312639 172.20176022 -34.09765625 176.74609375 C-36.20603539 178.38342183 -38.22677147 180.04566743 -40.24609375 181.78515625 C-43 184 -43 184 -45 184 C-46.32426032 179.99977918 -46.14023229 175.93652087 -46.12939453 171.77490234 C-46.13114685 170.94847733 -46.13289917 170.12205231 -46.13470459 169.27058411 C-46.13910153 166.54234714 -46.13619323 163.81417511 -46.1328125 161.0859375 C-46.13348603 159.19072456 -46.13445647 157.29551171 -46.13571167 155.40029907 C-46.13718561 151.43092017 -46.13504334 147.46156378 -46.13037109 143.4921875 C-46.12466621 138.396402 -46.12795953 133.30066907 -46.13394356 128.20488548 C-46.13755072 124.29307659 -46.13641 120.38128024 -46.13381577 116.46947098 C-46.13314733 114.58993143 -46.13397202 112.71039074 -46.13629532 110.83085251 C-46.13882521 108.20930699 -46.13497681 105.58784767 -46.12939453 102.96630859 C-46.13141876 102.18497055 -46.13344299 101.40363251 -46.13552856 100.59861755 C-46.11426586 95.22853172 -46.11426586 95.22853172 -45 93 C-44.87727389 90.16315554 -44.81425439 87.34928006 -44.79467773 84.51123047 C-44.78477814 83.63311707 -44.77487854 82.75500366 -44.76467896 81.85028076 C-44.73301726 78.93927738 -44.70828809 76.02825765 -44.68359375 73.1171875 C-44.66302825 71.10221933 -44.64203189 69.08725551 -44.62062073 67.07229614 C-44.56535829 61.76226319 -44.51596743 56.45219103 -44.46777344 51.14208984 C-44.41758885 45.72620138 -44.36188692 40.31037003 -44.30664062 34.89453125 C-44.19900803 24.26306959 -44.0975744 13.6315584 -44 3 C-43.67 3 -43.34 3 -43 3 C-42.82748706 19.18744126 -42.66108619 35.37494094 -42.5 51.5625 C-42.48812275 52.75568218 -42.4762455 53.94886436 -42.46400833 55.17820358 C-42.16396207 85.47301599 -41.89810913 115.76599511 -41.9375 146.0625 C-41.93835602 146.72596058 -41.93921204 147.38942116 -41.94009399 148.0729866 C-41.95074981 155.71535768 -41.96948304 163.35768234 -42 171 C-40.515 170.01 -40.515 170.01 -39 169 C-38.01 169 -37.02 169 -36 169 C-36 169.66 -36 170.32 -36 171 C-35.34 171 -34.68 171 -34 171 C-33.505 167.04 -33.505 167.04 -33 163 C-31.80375 163.04125 -30.6075 163.0825 -29.375 163.125 C-25.54545902 163.1046301 -22.481934 162.740967 -19 161 C-17.56076801 158.49004504 -17.56076801 158.49004504 -17 156 C-14.66666667 156 -12.33333333 156 -10 156 C-10.04125 155.2575 -10.0825 154.515 -10.125 153.75 C-9.99601866 150.91241048 -9.42948778 149.41226062 -8 147 C-7.67 147.66 -7.34 148.32 -7 149 C-3.04 148.01 -3.04 148.01 1 147 C0.83734146 145.96190186 0.67468292 144.92380371 0.50709534 143.85424805 C-0.25616232 137.69555813 -0.13105316 131.52839192 -0.11352539 125.33203125 C-0.1132429 123.96141054 -0.11340246 122.59078969 -0.1139679 121.22016907 C-0.11425346 117.52033414 -0.10839583 113.82053199 -0.10139394 110.12070465 C-0.09512013 106.24632435 -0.09455342 102.37194319 -0.09336853 98.49755859 C-0.09026705 91.17025418 -0.08206968 83.84296478 -0.07201904 76.51566696 C-0.06082107 68.16981401 -0.05533818 59.82396033 -0.05032361 51.47810173 C-0.03988603 34.31872582 -0.0223096 17.1593645 0 0 Z " fill="currentColor" transform="translate(130,269)"/>
<path d="M0 0 C0.33 0 0.66 0 1 0 C0.99907821 0.94128942 0.99815641 1.88257885 0.99720669 2.8523922 C0.97503394 25.72728811 0.958587 48.60218264 0.94818783 71.47708702 C0.94302556 82.53909054 0.93598416 93.60108697 0.92456055 104.66308594 C0.91461162 114.30165474 0.90814607 123.94021842 0.90591151 133.57879221 C0.90460476 138.6850966 0.90152114 143.79138631 0.89426994 148.897686 C0.88750644 153.69923633 0.88538372 158.50076585 0.88689232 163.30232048 C0.88661614 165.06884435 0.88461297 166.83536889 0.88079453 168.60188866 C0.87585214 171.00531948 0.87700375 173.40867078 0.87974548 175.81210327 C0.87683264 176.51832113 0.8739198 177.22453898 0.87091869 177.95215738 C0.83723291 181.59902039 0.83723291 181.59902039 2 185 C5.76667915 184.48636193 8.64120164 183.73730949 12 182 C12.99 182 13.98 182 15 182 C14.67 181.01 14.34 180.02 14 179 C14.9590625 178.566875 14.9590625 178.566875 15.9375 178.125 C18.15206079 177.17176549 18.15206079 177.17176549 19 175 C19.99 175 20.98 175 22 175 C23.68236471 174.37400383 25.3523962 173.71247732 27 173 C27 171.68 27 170.36 27 169 C27 168.01 27 167.02 27 166 C29.64 166 32.28 166 35 166 C35 163.69 35 161.38 35 159 C35.763125 159.20625 36.52625 159.4125 37.3125 159.625 C40.21885944 160.33391203 40.21885944 160.33391203 43 158 C44.21284876 154.94570927 44.21284876 154.94570927 45 152 C45.66 152.33 46.32 152.66 47 153 C47.25 155.75 47.25 155.75 47 159 C44.1784664 162.27191925 40.8093112 164.77486258 37.375 167.375 C36.22092465 168.25334219 35.06730563 169.13228417 33.9140625 170.01171875 C32.97868652 170.72400635 32.97868652 170.72400635 32.02441406 171.45068359 C28.24871133 174.34028918 24.50080482 177.2656972 20.75 180.1875 C19.65244385 181.04190674 19.65244385 181.04190674 18.53271484 181.91357422 C17.8155127 182.47189941 17.09831055 183.03022461 16.359375 183.60546875 C15.64845703 184.15638184 14.93753906 184.70729492 14.20507812 185.27490234 C12.6569496 186.48604895 11.12008941 187.7116714 9.59179688 188.94775391 C8.80353516 189.57987793 8.01527344 190.21200195 7.203125 190.86328125 C6.49317383 191.43989502 5.78322266 192.01650879 5.05175781 192.6105957 C2.96886709 194.02108251 1.42444503 194.46484252 -1 195 C-1.0233549 170.46108677 -1.04099193 145.9221752 -1.05181217 121.3832531 C-1.05696961 109.98954777 -1.06400183 98.59584934 -1.07543945 87.20214844 C-1.08540312 77.27201874 -1.09185745 67.34189405 -1.09408849 57.4117595 C-1.09539273 52.15330329 -1.09846052 46.89486139 -1.10573006 41.63640976 C-1.11251678 36.68710748 -1.11461154 31.7378254 -1.11310768 26.78851891 C-1.11338281 24.97207339 -1.1153722 23.1556272 -1.11920547 21.33918571 C-1.12418411 18.85833168 -1.12298287 16.37755381 -1.12025452 13.896698 C-1.12316736 13.17878582 -1.1260802 12.46087364 -1.12908131 11.72120655 C-1.11716843 7.71060716 -0.77324436 3.93536213 0 0 Z " fill="currentColor" transform="translate(157,202)"/>
<path d="M0 0 C13.34468907 -1.22553267 25.57916651 3.8335302 36 12 C49.31189667 23.44004445 58.41727587 37.34260033 61 55 C62.30937058 75.9029797 58.20514631 93.51369634 44.140625 109.70703125 C41.52735129 112.50628611 39.21562947 114.90610174 36 117 C33.625 116.8125 33.625 116.8125 32 116 C32.495 114.515 32.495 114.515 33 113 C36.0625 111.8125 36.0625 111.8125 39 111 C39.33 109.35 39.66 107.7 40 106 C43.465 105.01 43.465 105.01 47 104 C47.144375 103.21625 47.28875 102.4325 47.4375 101.625 C48 99 48 99 49 97 C48.67 96.01 48.34 95.02 48 94 C49.98 93.505 49.98 93.505 52 93 C52 92.01 52 91.02 52 90 C51.01 89.505 51.01 89.505 50 89 C51.32 89 52.64 89 54 89 C55.79210776 85.88739179 56.31478453 83.38065683 56.5625 79.8125 C56.90063091 75.09936909 56.90063091 75.09936909 58 74 C58.12680356 71.77356538 58.17584894 69.54251223 58.1875 67.3125 C58.20167969 66.09175781 58.21585937 64.87101562 58.23046875 63.61328125 C58.00189074 60.02964298 57.16588773 57.36964414 56 54 C55.8046875 51.2265625 55.8046875 51.2265625 55.875 48.625 C55.89304687 47.75101563 55.91109375 46.87703125 55.9296875 45.9765625 C55.95289063 45.32429688 55.97609375 44.67203125 56 44 C55.34 44 54.68 44 54 44 C53.67 43.01 53.34 42.02 53 41 C52.01 40.7525 52.01 40.7525 51 40.5 C50.01 40.2525 50.01 40.2525 49 40 C48 37 48 37 48 33 C47.85498792 31.58095324 47.68852321 30.16392405 47.5 28.75 C47.335 27.5125 47.17 26.275 47 25 C46.05125 24.938125 45.1025 24.87625 44.125 24.8125 C43.09375 24.544375 42.0625 24.27625 41 24 C39.625 21.4375 39.625 21.4375 39 19 C37.35 19.33 35.7 19.66 34 20 C33.87625 19.071875 33.7525 18.14375 33.625 17.1875 C33.18466918 13.86074765 33.18466918 13.86074765 31 11 C28.94074861 10.27617533 28.94074861 10.27617533 27 10 C27 9.34 27 8.68 27 8 C26.01 8.33 25.02 8.66 24 9 C21 8 18 7 15 6 C15.33 5.01 15.66 4.02 16 3 C15.34 3 14.68 3 14 3 C13.67 3.66 13.34 4.32 13 5 C8.71 3.68 4.42 2.36 0 1 C0 0.67 0 0.34 0 0 Z " fill="currentColor" transform="translate(272,103)"/>
<path d="M0 0 C16.5 0 33 0 50 0 C49.67 0.66 49.34 1.32 49 2 C34.48 2.33 19.96 2.66 5 3 C2.2930611 8.4138778 1.56232515 11.24649711 1.63671875 16.953125 C1.63622025 17.6945575 1.63572174 18.43598999 1.63520813 19.19989014 C1.63753617 20.75633444 1.64718923 22.31278341 1.66381836 23.86914062 C1.68756813 26.25684954 1.68435081 28.64345171 1.67773438 31.03125 C1.6833067 32.54688168 1.69041376 34.06250866 1.69921875 35.578125 C1.69830734 36.2926886 1.69739594 37.0072522 1.69645691 37.74346924 C1.63989939 41.82262314 1.63989939 41.82262314 4 45 C6.07167604 45.31913881 6.07167604 45.31913881 8.47802734 45.29052734 C9.40594086 45.30328705 10.33385437 45.31604675 11.28988647 45.32919312 C12.29508331 45.33141876 13.30028015 45.33364441 14.3359375 45.3359375 C15.36683502 45.3425943 16.39773254 45.3492511 17.45986938 45.35610962 C19.64380098 45.36624842 21.82776364 45.37092626 24.01171875 45.37060547 C27.35468649 45.37497346 30.696329 45.41126675 34.0390625 45.44921875 C36.15884964 45.45508763 38.27864307 45.45905655 40.3984375 45.4609375 C41.39958588 45.47530853 42.40073425 45.48967957 43.43222046 45.50448608 C48.89272095 45.58612429 48.89272095 45.58612429 53.51342773 43.01586914 C54.00399658 42.35063232 54.49456543 41.68539551 55 41 C57.38671875 40.28515625 57.38671875 40.28515625 60 40 C61.43279297 39.84337891 61.43279297 39.84337891 62.89453125 39.68359375 C63.85746094 39.60238281 64.82039063 39.52117187 65.8125 39.4375 C66.78832031 39.35371094 67.76414062 39.26992188 68.76953125 39.18359375 C69.50558594 39.12300781 70.24164063 39.06242187 71 39 C71 39.66 71 40.32 71 41 C71.66 41 72.32 41 73 41 C73.495 40.01 73.495 40.01 74 39 C77.66666667 39 81.33333333 39 85 39 C84.505 36.03 84.505 36.03 84 33 C85.485 33.495 85.485 33.495 87 34 C89.07647876 33.69193547 89.07647876 33.69193547 91.1875 33.0625 C92.445625 32.711875 93.70375 32.36125 95 32 C95 32.66 95 33.32 95 34 C95.5775 33.649375 96.155 33.29875 96.75 32.9375 C99.39786506 31.83422289 100.33185326 32.19843491 103 33 C83.24712194 42.09761127 63.99035067 47.19451791 42.1875 47.09765625 C40.97803711 47.0962413 39.76857422 47.09482635 38.52246094 47.09336853 C34.68161485 47.08779709 30.8408283 47.07524984 27 47.0625 C24.3867196 47.05748131 21.77343827 47.05291905 19.16015625 47.04882812 C12.77339643 47.03869041 6.38676441 47.01910934 0 47 C0 31.49 0 15.98 0 0 Z " fill="currentColor" transform="translate(228,257)"/>
<path d="M0 0 C3.18127301 1.5906365 3.83616196 4.81045466 5 8 C5.350625 9.258125 5.70125 10.51625 6.0625 11.8125 C6.7414531 15.06068786 6.7414531 15.06068786 9 17 C8.34 17 7.68 17 7 17 C7.0407666 17.73524902 7.0815332 18.47049805 7.12353516 19.22802734 C7.30364855 22.60980239 7.46443762 25.99224253 7.625 29.375 C7.68945312 30.53128906 7.75390625 31.68757813 7.8203125 32.87890625 C8.13807004 39.90929193 7.79825688 46.18298934 6 53 C6.66 53 7.32 53 8 53 C9 56 9 56 7.8125 59.625 C6 63 6 63 3.88671875 63.7109375 C3.26410156 63.80632812 2.64148438 63.90171875 2 64 C1.86722656 64.60328125 1.73445313 65.2065625 1.59765625 65.828125 C1.42105469 66.62734375 1.24445313 67.4265625 1.0625 68.25 C0.88847656 69.03890625 0.71445312 69.8278125 0.53515625 70.640625 C0.19019979 72.16145494 -0.19515469 73.67395035 -0.62890625 75.171875 C-1.21317781 77.08715043 -1.21317781 77.08715043 0 79 C-1.423125 79.4021875 -1.423125 79.4021875 -2.875 79.8125 C-6.25267273 80.74986588 -6.25267273 80.74986588 -8 84 C-8 84.99 -8 85.98 -8 87 C-8.66 87.99 -9.32 88.98 -10 90 C-9.34 90.99 -8.68 91.98 -8 93 C-11 94 -11 94 -13 94 C-16.19560041 98.06573561 -16.19560041 98.06573561 -17 103 C-19.97 103.495 -19.97 103.495 -23 104 C-23 103.01 -23 102.02 -23 101 C-25.475 101.99 -25.475 101.99 -28 103 C-27.34 104.32 -26.68 105.64 -26 107 C-30.32564205 108.58255197 -34.428721 109.45144652 -39 110 C-36.56787729 107.37523391 -33.87864141 105.46456005 -30.9375 103.4375 C-15.81811232 92.46150183 -6.27458737 78.48874352 0 61 C0.41378906 59.84886719 0.82757813 58.69773438 1.25390625 57.51171875 C6.86452551 38.99863011 5.38260412 18.38255427 0 0 Z " fill="currentColor" transform="translate(352,136)"/>
<path d="M0 0 C1.35354584 -0.00639748 1.35354584 -0.00639748 2.73443604 -0.01292419 C3.73271423 -0.01247101 4.73099243 -0.01201782 5.75952148 -0.0115509 C6.8052533 -0.01490952 7.85098511 -0.01826813 8.92840576 -0.02172852 C12.41248746 -0.03128389 15.89652121 -0.03318493 19.38061523 -0.03425598 C21.8046877 -0.03746902 24.22875997 -0.04083313 26.65283203 -0.04434204 C31.75415495 -0.05034727 36.8554609 -0.05218088 41.95678711 -0.05158997 C48.45358276 -0.05148909 54.95026727 -0.06505716 61.44703674 -0.08236217 C66.46606938 -0.09356309 71.48507602 -0.09550659 76.50411987 -0.09498024 C78.89598976 -0.09615144 81.28786052 -0.10052422 83.67971802 -0.10831261 C100.5407191 -0.15800736 117.0555541 0.01962329 133.38061523 4.75871277 C134.21012695 4.98816589 135.03963867 5.21761902 135.89428711 5.45402527 C137.87202655 6.00276222 139.84561546 6.56642963 141.81811523 7.13371277 C141.81811523 7.46371277 141.81811523 7.79371277 141.81811523 8.13371277 C136.66451363 7.69696687 131.89626706 6.93776079 126.88964844 5.6333313 C119.68421326 3.94869851 112.73989172 3.58045354 105.36108398 3.45231628 C103.96850587 3.41946379 102.57594318 3.38595188 101.18339539 3.35183811 C85.01485033 2.98477856 68.84041801 3.00432679 52.66871262 3.03231883 C48.3260185 3.03871403 43.9833231 3.03916859 39.640625 3.04034424 C31.47476198 3.04341117 23.30891289 3.05155968 15.14305592 3.06169373 C5.82205781 3.07300192 -3.49894109 3.07840176 -12.81994438 3.08338916 C-31.94059897 3.0937481 -51.06124074 3.11125425 -70.18188477 3.13371277 C-70.18188477 2.80371277 -70.18188477 2.47371277 -70.18188477 2.13371277 C-69.36978043 2.1234053 -68.55767609 2.11309784 -67.72096252 2.10247803 C-60.08351988 2.00467297 -52.44616155 1.90218329 -44.8088541 1.79437351 C-40.88203863 1.73910862 -36.95521576 1.68568307 -33.02832031 1.63639832 C-29.24167635 1.58880715 -25.4551256 1.53646653 -21.66859245 1.48077202 C-20.22086839 1.46032459 -18.77311873 1.44161553 -17.32534981 1.42463875 C-15.30424318 1.40064768 -13.28321866 1.37001202 -11.26220703 1.33903503 C-10.10970963 1.32349075 -8.95721222 1.30794647 -7.76979065 1.29193115 C-4.74877417 1.10723342 -3.23673436 0.00688204 0 0 Z " fill="currentColor" transform="translate(171.181884765625,29.866287231445313)"/>
<path d="M0 0 C0.33 0 0.66 0 1 0 C1.02505615 0.85940186 1.0501123 1.71880371 1.07592773 2.60424805 C1.17321019 5.90898369 1.27224113 9.21365864 1.37231445 12.51831055 C1.41464106 13.92681952 1.45634395 15.33534742 1.49731445 16.74389648 C1.55760537 18.81239603 1.62030954 20.88080864 1.68359375 22.94921875 C1.70424896 23.63877151 1.72490417 24.32832428 1.7461853 25.03877258 C1.86403956 28.70208003 2.00969953 32.3568464 2.26159668 36.0135498 C3.47663805 54.54400981 2.93630192 73.12381759 2.69753575 91.67843843 C2.63431399 96.69513501 2.57823626 101.7119118 2.52134705 106.72868347 C2.41294568 116.19473557 2.29827351 125.6607005 2.18125385 135.12664956 C2.0481657 145.91768433 1.92221212 156.70879887 1.79680836 167.49992526 C1.53905066 189.66671344 1.27249408 211.83338839 1 234 C0.67 234 0.34 234 0 234 C0 156.78 0 79.56 0 0 Z " fill="currentColor" transform="translate(85,128)"/>
<path d="M0 0 C0.66 0 1.32 0 2 0 C4.56221714 16.56898738 4.13683611 33.4466746 4.09765625 50.1640625 C4.09578643 52.53730235 4.0943652 54.91054258 4.09336853 57.28378296 C4.08958775 63.46823226 4.07979648 69.65265731 4.06866455 75.83709717 C4.05835388 82.17264478 4.05385042 88.50819638 4.04882812 94.84375 C4.03816931 107.2291772 4.02114763 119.61458657 4 132 C3.34 132 2.68 132 2 132 C1.2848718 123.34184073 0.93766742 114.79220721 1.02041531 106.10728168 C1.05051269 100.76073034 0.84025646 95.46625901 0.50610352 90.1315918 C-0.05625541 80.29628987 -0.1290742 70.49322293 -0.09765625 60.64453125 C-0.09578384 58.87806743 -0.09436384 57.11160308 -0.09336853 55.34513855 C-0.08960802 50.76688115 -0.07983566 46.1886571 -0.06866455 41.6104126 C-0.05830873 36.91020152 -0.05384102 32.2099849 -0.04882812 27.50976562 C-0.03820537 18.33982935 -0.02121007 9.16991748 0 0 Z " fill="currentColor" transform="translate(200,220)"/>
<path d="M0 0 C0.33 0 0.66 0 1 0 C2.10345496 103.14953306 2.10345496 103.14953306 2.12338257 141.5873909 C2.12499508 143.61880225 2.12854161 145.65020223 2.13256836 147.68161011 C2.1383423 151.38412216 2.13706485 155.08655004 2.1328125 158.7890625 C2.13479645 159.841436 2.1367804 160.89380951 2.13882446 161.97807312 C2.1223396 167.09438361 1.885599 171.95815386 1 177 C1.99 177.33 2.98 177.66 4 178 C2.625 179.5 2.625 179.5 1 181 C0.34 181 -0.32 181 -1 181 C-2.32426032 176.99977918 -2.14023229 172.93652087 -2.12939453 168.77490234 C-2.13114685 167.94847733 -2.13289917 167.12205231 -2.13470459 166.27058411 C-2.13910153 163.54234714 -2.13619323 160.81417511 -2.1328125 158.0859375 C-2.13348603 156.19072456 -2.13445647 154.29551171 -2.13571167 152.40029907 C-2.13718561 148.43092017 -2.13504334 144.46156378 -2.13037109 140.4921875 C-2.12466621 135.396402 -2.12795953 130.30066907 -2.13394356 125.20488548 C-2.13755072 121.29307659 -2.13641 117.38128024 -2.13381577 113.46947098 C-2.13314733 111.58993143 -2.13397202 109.71039074 -2.13629532 107.83085251 C-2.13882521 105.20930699 -2.13497681 102.58784767 -2.12939453 99.96630859 C-2.13141876 99.18497055 -2.13344299 98.40363251 -2.13552856 97.59861755 C-2.11426586 92.22853172 -2.11426586 92.22853172 -1 90 C-0.87727389 87.16315554 -0.81425439 84.34928006 -0.79467773 81.51123047 C-0.78477814 80.63311707 -0.77487854 79.75500366 -0.76467896 78.85028076 C-0.73301726 75.93927738 -0.70828809 73.02825765 -0.68359375 70.1171875 C-0.66302825 68.10221933 -0.64203189 66.08725551 -0.62062073 64.07229614 C-0.56535829 58.76226319 -0.51596743 53.45219103 -0.46777344 48.14208984 C-0.41758885 42.72620138 -0.36188692 37.31037003 -0.30664062 31.89453125 C-0.19900803 21.26306959 -0.0975744 10.6315584 0 0 Z " fill="currentColor" transform="translate(86,272)"/>
<path d="M0 0 C1.41377341 2.63904371 2.37240135 5.07120629 3 8 C4.65 8.33 6.3 8.66 8 9 C8.06058594 9.62648437 8.12117188 10.25296875 8.18359375 10.8984375 C8.26738281 11.71570313 8.35117187 12.53296875 8.4375 13.375 C8.51871094 14.18710938 8.59992188 14.99921875 8.68359375 15.8359375 C8.89090114 18.04272805 8.89090114 18.04272805 10 20 C10.31951994 26.71931637 10.2316033 33.38013227 9 40 C7.948125 40.1546875 7.948125 40.1546875 6.875 40.3125 C1.76484092 41.53449456 -2.56172225 44.2587108 -7 47 C-7 45.68 -7 44.36 -7 43 C-21.19 43 -35.38 43 -50 43 C-50 42.67 -50 42.34 -50 42 C-49.44733963 41.98969254 -48.89467926 41.97938507 -48.32527161 41.96876526 C-42.56626091 41.86047301 -36.8073995 41.74589397 -31.04858398 41.62768555 C-28.9001783 41.58440948 -26.75173985 41.54272927 -24.60327148 41.50268555 C-21.51275768 41.4448054 -18.4224077 41.38116208 -15.33203125 41.31640625 C-14.37351761 41.29969376 -13.41500397 41.28298126 -12.42744446 41.26576233 C-11.07661018 41.2358445 -11.07661018 41.2358445 -9.69848633 41.20532227 C-8.91016922 41.18977798 -8.12185211 41.1742337 -7.30964661 41.15821838 C-4.78529148 40.98529176 -2.44932164 40.63867821 0 40 C1.15922128 38.26857146 1.15922128 38.26857146 2 36 C2.680625 34.989375 3.36125 33.97875 4.0625 32.9375 C7.00401174 28.47778865 7.3521261 25.28189148 7 20 C5.28264816 14.75755753 3.07807075 11.67026368 -1 8 C-1.40511307 7.46751144 -1.81022614 6.93502289 -2.22761536 6.38639832 C-4.97655966 4.23611352 -7.41333328 4.59811209 -10.8581543 4.56762695 C-11.55109589 4.5574353 -12.24403748 4.54724365 -12.95797729 4.53674316 C-15.24680618 4.50656557 -17.5352169 4.49734037 -19.82421875 4.48828125 C-21.4117828 4.47143802 -22.99933348 4.45328826 -24.58686829 4.43388367 C-28.76416854 4.38633856 -32.94141461 4.35655858 -37.11889648 4.33044434 C-41.38210757 4.30066142 -45.64513187 4.25412336 -49.90820312 4.20898438 C-58.27204375 4.12290001 -66.6359013 4.05557778 -75 4 C-71.3537922 1.70214502 -68.27871034 1.75787691 -64.02832031 1.77294922 C-63.3352327 1.77265717 -62.64214508 1.77236511 -61.92805481 1.77206421 C-59.64461608 1.77345392 -57.3615065 1.78899794 -55.078125 1.8046875 C-53.49200621 1.80841891 -51.90588511 1.81126528 -50.31976318 1.81326294 C-46.15059007 1.82088932 -41.98155689 1.84052922 -37.81243896 1.8626709 C-33.55596815 1.88315079 -29.29947466 1.89226924 -25.04296875 1.90234375 C-16.69524837 1.92377609 -8.34764161 1.95789998 0 2 C0 1.34 0 0.68 0 0 Z " fill="currentColor" transform="translate(279,144)"/>
<path d="M0 0 C4.62 0 9.24 0 14 0 C14 0.66 14 1.32 14 2 C24.89 2 35.78 2 47 2 C47 2.33 47 2.66 47 3 C43.01132334 3.74493429 39.24681206 4.12405892 35.1913147 4.12025452 C34.05557007 4.12162918 32.91982544 4.12300385 31.74966431 4.12442017 C29.90252335 4.11902725 29.90252335 4.11902725 28.01806641 4.11352539 C26.05628448 4.11374443 26.05628448 4.11374443 24.05487061 4.1139679 C20.48094587 4.11425407 16.9070549 4.10838642 13.33313799 4.10139394 C9.59354354 4.09513045 5.85394826 4.09455423 2.11434937 4.09336853 C-4.96156852 4.09026404 -12.03747091 4.08206255 -19.11338198 4.07201904 C-27.17140677 4.0608305 -35.22943232 4.05534055 -43.28746295 4.05032361 C-59.8583177 4.03987919 -76.42915687 4.02229685 -93 4 C-93 3.67 -93 3.34 -93 3 C-91.70900391 2.97494385 -90.41800781 2.9498877 -89.08789062 2.92407227 C-84.27204433 2.82949433 -79.45632544 2.72939907 -74.640625 2.62768555 C-72.56122836 2.58452643 -70.4818006 2.54283899 -68.40234375 2.50268555 C-65.4035507 2.4445193 -62.40491152 2.38096138 -59.40625 2.31640625 C-58.48509399 2.29969376 -57.56393799 2.28298126 -56.61486816 2.26576233 C-52.69161078 2.1768728 -48.84741341 2.03105593 -44.95898438 1.48632812 C-40.35671702 0.92097806 -35.8801604 0.87441083 -31.25 0.90234375 C-30.35128174 0.9037587 -29.45256348 0.90517365 -28.52661133 0.90663147 C-25.68437225 0.91218417 -22.84221487 0.92472763 -20 0.9375 C-18.06119906 0.94252112 -16.12239688 0.94708295 -14.18359375 0.95117188 C-9.45569817 0.96213806 -4.72786289 0.97936956 0 1 C0 0.67 0 0.34 0 0 Z " fill="currentColor" transform="translate(225,74)"/>
<path d="M0 0 C1.08417961 0.01441132 1.08417961 0.01441132 2.19026184 0.02911377 C4.55476507 0.0618228 6.91906686 0.10225983 9.28344727 0.14282227 C10.93253389 0.16715094 12.58162777 0.19099308 14.23072815 0.21437073 C18.55276801 0.27693853 22.8746782 0.34608121 27.19659424 0.41662598 C31.61415751 0.48755738 36.03181206 0.55222545 40.44946289 0.61743164 C49.10386092 0.74609158 57.75813196 0.88170247 66.41235352 1.02172852 C66.41235352 1.35172852 66.41235352 1.68172852 66.41235352 2.02172852 C27.30735352 2.51672852 27.30735352 2.51672852 -12.58764648 3.02172852 C-12.56702148 9.78672852 -12.54639648 16.55172852 -12.52514648 23.52172852 C-12.48885342 48.36477521 -12.96484427 73.18749034 -13.58764648 98.02172852 C-13.91764648 98.02172852 -14.24764648 98.02172852 -14.58764648 98.02172852 C-14.58764648 66.01172852 -14.58764648 34.00172852 -14.58764648 1.02172852 C-9.42793627 0.28462706 -5.13083371 -0.0789359 0 0 Z " fill="currentColor" transform="translate(99.587646484375,29.978271484375)"/>
<path d="M0 0 C0.495 0.99 0.495 0.99 1 2 C0.10860377 4.67418868 -0.85043334 7.217993 -1.9375 9.8125 C-2.2567041 10.57715576 -2.5759082 11.34181152 -2.90478516 12.12963867 C-5.95622363 19.22916077 -9.63886093 25.6069666 -14 32 C-14.61875 32.93585938 -15.2375 33.87171875 -15.875 34.8359375 C-23.00039454 44.99519143 -32.11775612 53.39788512 -41 62 C-41.66 61.67 -42.32 61.34 -43 61 C-41.38731308 58.28775382 -39.75098126 55.62647188 -38 53 C-37.34 53 -36.68 53 -36 53 C-33.87491756 49.81237635 -33.4979837 47.73487777 -33 44 C-30.92446352 43.4465236 -29.15634036 43 -27 43 C-27 42.34 -27 41.68 -27 41 C-26.34 41 -25.68 41 -25 41 C-25 40.34 -25 39.68 -25 39 C-25.66 38.67 -26.32 38.34 -27 38 C-25.515 37.505 -25.515 37.505 -24 37 C-23.34 36.34 -22.68 35.68 -22 35 C-20.515 35.495 -20.515 35.495 -19 36 C-19 33.36 -19 30.72 -19 28 C-16.69 27.34 -14.38 26.68 -12 26 C-11.67 22.37 -11.34 18.74 -11 15 C-9.68 14.67 -8.36 14.34 -7 14 C-5.71917338 12.11643144 -5.05814433 10.16045293 -4.28515625 8.02734375 C-3.89650391 6.96193359 -3.89650391 6.96193359 -3.5 5.875 C-3.2628125 5.19179687 -3.025625 4.50859375 -2.78125 3.8046875 C-2 2 -2 2 0 0 Z " fill="currentColor" transform="translate(395,213)"/>
<path d="M0 0 C12.77822454 19.16733681 9.6952308 53.0235246 5.49511719 74.59277344 C4.9365298 77.24099863 4.32669197 79.87013898 3.6875 82.5 C3.40483276 83.73000732 3.40483276 83.73000732 3.11645508 84.98486328 C2.55346794 87.12271432 2.00867017 89.03254214 1 91 C-1.66796875 92.53125 -1.66796875 92.53125 -4 93 C-3.34 89.7 -2.68 86.4 -2 83 C-1.34 83 -0.68 83 0 83 C0.2165625 81.9171875 0.2165625 81.9171875 0.4375 80.8125 C0.80449068 78.97754661 1.17914109 77.14410368 1.5625 75.3125 C2.06196389 73.06473013 2.06196389 73.06473013 2 71 C2.66 71 3.32 71 4 71 C3.979375 69.783125 3.95875 68.56625 3.9375 67.3125 C3.92604739 63.60185537 4.18381857 60.00221646 4.5625 56.3125 C5.09097122 50.03039147 4.91446988 43.85678684 4.625 37.5625 C4.58189697 36.61479736 4.53879395 35.66709473 4.49438477 34.69067383 C4.25377414 30.05902203 3.89850379 25.56104892 3 21 C2.67 21 2.34 21 2 21 C2.33 18.69 2.66 16.38 3 14 C2.01 13.67 1.02 13.34 0 13 C0 8.71 0 4.42 0 0 Z " fill="currentColor" transform="translate(396,122)"/>
<path d="M0 0 C0.33 0 0.66 0 1 0 C1 51.81 1 103.62 1 157 C0.67 157 0.34 157 0 157 C-0.16054039 148.00593107 -0.31429173 139.01175582 -0.46335983 130.01749039 C-0.48771769 128.55164468 -0.51222499 127.08580145 -0.53688431 125.61996078 C-0.79719324 110.14244473 -1.05347777 94.66775746 -0.99609375 79.1875 C-0.9925589 78.15566086 -0.98902405 77.12382172 -0.98538208 76.06071472 C-0.96549594 71.34004442 -0.93038819 66.62004099 -0.875 61.8996582 C-0.79553935 52.69943719 -1.17873546 44.05729256 -3 35 C-2.01 35.33 -1.02 35.66 0 36 C0 24.12 0 12.24 0 0 Z " fill="currentColor" transform="translate(131,159)"/>
<path d="M0 0 C0.7425 0.474375 1.485 0.94875 2.25 1.4375 C4.77833778 3.05351048 4.77833778 3.05351048 6.97631836 3.43408203 C9.31862891 4.08910385 10.37441076 4.9537364 12.12890625 6.6171875 C12.68900391 7.14183594 13.24910156 7.66648437 13.82617188 8.20703125 C14.39916016 8.75746094 14.97214844 9.30789062 15.5625 9.875 C16.13935547 10.41769531 16.71621094 10.96039063 17.31054688 11.51953125 C22.16195619 16.09675481 25.987717 19.975434 29 26 C28.67 26.99 28.34 27.98 28 29 C27.566875 28.505 27.13375 28.01 26.6875 27.5 C25.00259517 25.66781808 25.00259517 25.66781808 22 26 C21.34 25.01 20.68 24.02 20 23 C20 23.99 20 24.98 20 26 C19.01 26 18.02 26 17 26 C16 23 16 23 16.9375 20.8125 C17.4634375 19.9153125 17.4634375 19.9153125 18 19 C17.34 18.34 16.68 17.68 16 17 C15.67 17.33 15.34 17.66 15 18 C13.33382885 18.04063832 11.66611905 18.042721 10 18 C10.33 15.69 10.66 13.38 11 11 C10.34 11 9.68 11 9 11 C9 10.34 9 9.68 9 9 C8.05125 9.20625 7.1025 9.4125 6.125 9.625 C5.09375 9.74875 4.0625 9.8725 3 10 C2.34 9.34 1.68 8.68 1 8 C1 7.01 1 6.02 1 5 C-0.32 4.34 -1.64 3.68 -3 3 C-2.01 2.01 -1.02 1.02 0 0 Z " fill="currentColor" transform="translate(343,54)"/>
<path d="M0 0 C1.36125 0.12375 1.36125 0.12375 2.75 0.25 C3.08 1.24 3.41 2.23 3.75 3.25 C4.966875 3.229375 6.18375 3.20875 7.4375 3.1875 C10.68006017 3.1817711 13.58069955 3.52558847 16.75 4.25 C17.74 4.25 18.73 4.25 19.75 4.25 C20.08 4.91 20.41 5.57 20.75 6.25 C24.43187245 7.36150866 27.95902095 8.14678439 31.7734375 8.64453125 C38.19703973 9.49308117 41.41426856 10.12595376 45.75 15.25 C48.42790896 16.12238858 48.42790896 16.12238858 50.75 16.25 C50.75 16.91 50.75 17.57 50.75 18.25 C51.41 18.25 52.07 18.25 52.75 18.25 C52.75 18.91 52.75 19.57 52.75 20.25 C53.41 20.25 54.07 20.25 54.75 20.25 C55.245 18.765 55.245 18.765 55.75 17.25 C57.07 18.57 58.39 19.89 59.75 21.25 C59.09 22.9 58.43 24.55 57.75 26.25 C54.26120127 24.61410394 51.11291531 22.58324726 47.875 20.5 C34.39821756 12.082767 20.4905992 7.82405992 4.75 6.25 C4.42 5.92 4.09 5.59 3.75 5.25 C1.90108054 5.01636119 0.04511969 4.83696365 -1.8125 4.6875 C-2.82441406 4.60371094 -3.83632813 4.51992187 -4.87890625 4.43359375 C-6.05259766 4.34271484 -6.05259766 4.34271484 -7.25 4.25 C-4.83923194 1.28290085 -3.90322061 0.30024774 0 0 Z M56.75 19.25 C57.75 21.25 57.75 21.25 57.75 21.25 Z " fill="currentColor" transform="translate(268.25,71.75)"/>
<path d="M0 0 C0.33 0 0.66 0 1 0 C5.00778737 16.03114949 1.57748432 33.31077498 -5.97265625 47.62890625 C-10.33829818 54.88815286 -15.81773468 62.32317607 -23 67 C-25.375 66.8125 -25.375 66.8125 -27 66 C-26.67 65.01 -26.34 64.02 -26 63 C-22.9375 61.8125 -22.9375 61.8125 -20 61 C-19.67 59.35 -19.34 57.7 -19 56 C-16.69 55.34 -14.38 54.68 -12 54 C-11.7834375 52.824375 -11.7834375 52.824375 -11.5625 51.625 C-11 49 -11 49 -10 47 C-10.33 46.01 -10.66 45.02 -11 44 C-9.02 43.505 -9.02 43.505 -7 43 C-7 42.01 -7 41.02 -7 40 C-7.66 39.67 -8.32 39.34 -9 39 C-7.68 39 -6.36 39 -5 39 C-3.20789224 35.88739179 -2.68521547 33.38065683 -2.4375 29.8125 C-2.09936909 25.09936909 -2.09936909 25.09936909 -1 24 C-0.84235595 22.22130274 -0.74899323 20.43681524 -0.68359375 18.65234375 C-0.64169922 17.57275391 -0.59980469 16.49316406 -0.55664062 15.38085938 C-0.51732422 14.24455078 -0.47800781 13.10824219 -0.4375 11.9375 C-0.37272461 10.22723633 -0.37272461 10.22723633 -0.30664062 8.48242188 C-0.20017161 5.65507805 -0.09815793 2.82764262 0 0 Z " fill="currentColor" transform="translate(331,153)"/>
<path d="M0 0 C0.99 0.33 1.98 0.66 3 1 C2.67 1.99 2.34 2.98 2 4 C1.34 4 0.68 4 0 4 C-0.15625854 4.90890991 -0.15625854 4.90890991 -0.31567383 5.83618164 C-1.46588316 9.47310827 -4.7298969 11.24567793 -7.6875 13.4375 C-8.92122051 14.37284436 -10.15429883 15.30903639 -11.38671875 16.24609375 C-11.99161133 16.70008545 -12.59650391 17.15407715 -13.21972656 17.62182617 C-14.96033899 18.96929698 -16.61723439 20.38333828 -18.27734375 21.828125 C-21 24 -21 24 -23.875 24.3125 C-24.57625 24.209375 -25.2775 24.10625 -26 24 C-26.35475877 20.18634321 -26.2619932 18.41557542 -24.1875 15.125 C-22 13 -22 13 -19 13 C-19 13.66 -19 14.32 -19 15 C-18.34 15 -17.68 15 -17 15 C-16.67 12.36 -16.34 9.72 -16 7 C-14.80375 7.04125 -13.6075 7.0825 -12.375 7.125 C-8.54545902 7.1046301 -5.481934 6.740967 -2 5 C-0.56076801 2.49004504 -0.56076801 2.49004504 0 0 Z " fill="currentColor" transform="translate(113,425)"/>
<path d="M0 0 C0.98120464 3.05263664 0.98120464 4.94736336 0 8 C-0.66 8 -1.32 8 -2 8 C-2.185625 8.8971875 -2.185625 8.8971875 -2.375 9.8125 C-3 12 -3 12 -5 15 C-5 15.99 -5 16.98 -5 18 C-5.66 18.99 -6.32 19.98 -7 21 C-6.34 21.99 -5.68 22.98 -5 24 C-8 25 -8 25 -10 25 C-13.19560041 29.06573561 -13.19560041 29.06573561 -14 34 C-16.97 34.495 -16.97 34.495 -20 35 C-20 34.01 -20 33.02 -20 32 C-21.65 32.66 -23.3 33.32 -25 34 C-24.34 35.32 -23.68 36.64 -23 38 C-27.32564205 39.58255197 -31.428721 40.45144652 -36 41 C-33.56787729 38.37523391 -30.87864141 36.46456005 -27.9375 34.4375 C-15.23383891 25.21521112 -6.78291007 14.03360703 0 0 Z " fill="currentColor" transform="translate(349,205)"/>
<path d="M0 0 C0.495 0.99 0.495 0.99 1 2 C1.86625 1.4740625 1.86625 1.4740625 2.75 0.9375 C5.39786506 -0.16577711 6.33185326 0.19843491 9 1 C-5.75048362 7.79365131 -23.37570575 15.42610089 -40 15 C-40.99 14.34 -41.98 13.68 -43 13 C-38.66046583 8.01757188 -34.52799043 7.97224016 -28.1875 7.4375 C-27.21167969 7.35371094 -26.23585938 7.26992188 -25.23046875 7.18359375 C-24.49441406 7.12300781 -23.75835937 7.06242187 -23 7 C-23 7.66 -23 8.32 -23 9 C-22.34 9 -21.68 9 -21 9 C-20.67 8.34 -20.34 7.68 -20 7 C-16.33333333 7 -12.66666667 7 -9 7 C-9.495 4.03 -9.495 4.03 -10 1 C-9.01 1.33 -8.02 1.66 -7 2 C-4.64811553 1.40206327 -2.31074405 0.74118205 0 0 Z " fill="currentColor" transform="translate(322,289)"/>
<path d="M0 0 C0.33 0 0.66 0 1 0 C1.33 8.58 1.66 17.16 2 26 C2.33 26 2.66 26 3 26 C3 40.19 3 54.38 3 69 C2.34 69 1.68 69 1 69 C0.28130254 60.29862722 -0.06179071 51.70747605 0.02172852 42.97924805 C0.05400777 37.44188883 -0.20232341 31.96189871 -0.5625 26.4375 C-1.12782607 17.553148 -0.73762685 8.86287032 0 0 Z " fill="currentColor" transform="translate(201,283)"/>
<path d="M0 0 C2.48442901 2.48442901 2.29710238 3.25382975 2.3125 6.6875 C2.17865447 13.9820814 0.63384882 20.91496893 -1 28 C-1.34224609 29.64935547 -1.34224609 29.64935547 -1.69140625 31.33203125 C-1.91699219 32.31558594 -2.14257812 33.29914063 -2.375 34.3125 C-2.56835938 35.17488281 -2.76171875 36.03726563 -2.9609375 36.92578125 C-4 39 -4 39 -6.6015625 40.29296875 C-7.78878906 40.64294922 -7.78878906 40.64294922 -9 41 C-8.34 37.7 -7.68 34.4 -7 31 C-6.34 31 -5.68 31 -5 31 C-4.855625 30.278125 -4.71125 29.55625 -4.5625 28.8125 C-4.19550932 26.97754661 -3.82085891 25.14410368 -3.4375 23.3125 C-2.93803611 21.06473013 -2.93803611 21.06473013 -3 19 C-2.34 19 -1.68 19 -1 19 C-1.020625 17.72125 -1.04125 16.4425 -1.0625 15.125 C-1.07058755 10.03792983 -0.59020789 5.0483853 0 0 Z " fill="currentColor" transform="translate(401,174)"/>
<path d="M0 0 C0.33 0 0.66 0 1 0 C1.52626462 6.18360929 0.10807945 10.63426024 -3 16 C-6.26981426 19.78610073 -10.12734179 22.84783634 -14 26 C-14.495 24.02 -14.495 24.02 -15 22 C-29.19 22 -43.38 22 -58 22 C-58 21.67 -58 21.34 -58 21 C-57.44733963 20.98969254 -56.89467926 20.97938507 -56.32527161 20.96876526 C-50.56626091 20.86047301 -44.8073995 20.74589397 -39.04858398 20.62768555 C-36.9001783 20.58440948 -34.75173985 20.54272927 -32.60327148 20.50268555 C-29.51275768 20.4448054 -26.4224077 20.38116208 -23.33203125 20.31640625 C-22.37351761 20.29969376 -21.41500397 20.28298126 -20.42744446 20.26576233 C-19.52688828 20.24581711 -18.62633209 20.22587189 -17.69848633 20.20532227 C-16.91016922 20.18977798 -16.12185211 20.1742337 -15.30964661 20.15821838 C-12.78529148 19.98529176 -10.44932164 19.63867821 -8 19 C-6.84077872 17.26857146 -6.84077872 17.26857146 -6 15 C-5.34 14.113125 -4.68 13.22625 -4 12.3125 C-1.57405313 8.2945255 -0.77379609 4.58168735 0 0 Z " fill="currentColor" transform="translate(287,165)"/>
<path d="M0 0 C0.763125 0.495 1.52625 0.99 2.3125 1.5 C4.92363751 3.24368308 4.92363751 3.24368308 8 3 C9.03789581 4.64333504 10.03567924 6.31243867 11 8 C11.99 8.66 12.98 9.32 14 10 C15.57657955 12.36486932 16.09744693 13.41531841 15.625 16.25 C15.315625 17.11625 15.315625 17.11625 15 18 C13.35 18 11.7 18 10 18 C10.33 15.69 10.66 13.38 11 11 C10.34 11 9.68 11 9 11 C9 10.34 9 9.68 9 9 C8.05125 9.20625 7.1025 9.4125 6.125 9.625 C5.09375 9.74875 4.0625 9.8725 3 10 C2.34 9.34 1.68 8.68 1 8 C1 7.01 1 6.02 1 5 C-0.32 4.34 -1.64 3.68 -3 3 C-2.01 2.01 -1.02 1.02 0 0 Z " fill="currentColor" transform="translate(343,54)"/>
<path d="M0 0 C0.33 0.66 0.66 1.32 1 2 C0.04025103 4.77194578 -0.98311336 7.42876791 -2.125 10.125 C-2.44903809 10.89674561 -2.77307617 11.66849121 -3.10693359 12.46362305 C-6.2046672 19.70214208 -9.14336855 26.55245527 -16 31 C-16.66 31 -17.32 31 -18 31 C-18.33 30.01 -18.66 29.02 -19 28 C-16.69 27.34 -14.38 26.68 -12 26 C-11.67 22.37 -11.34 18.74 -11 15 C-9.68 14.67 -8.36 14.34 -7 14 C-5.71917338 12.11643144 -5.05814433 10.16045293 -4.28515625 8.02734375 C-3.89650391 6.96193359 -3.89650391 6.96193359 -3.5 5.875 C-3.2628125 5.19179687 -3.025625 4.50859375 -2.78125 3.8046875 C-2 2 -2 2 0 0 Z " fill="currentColor" transform="translate(395,213)"/>
<path d="M0 0 C1.36125 0.12375 1.36125 0.12375 2.75 0.25 C3.08 1.24 3.41 2.23 3.75 3.25 C4.966875 3.229375 6.18375 3.20875 7.4375 3.1875 C10.68006017 3.1817711 13.58069955 3.52558847 16.75 4.25 C17.74 4.25 18.73 4.25 19.75 4.25 C20.08 4.91 20.41 5.57 20.75 6.25 C22.71974384 6.74243596 24.69095436 7.23043039 26.671875 7.67578125 C29.35140361 8.41617731 31.4697344 9.6823174 33.75 11.25 C31.75 12.25 31.75 12.25 29.45703125 11.54296875 C28.50183594 11.17816406 27.54664063 10.81335938 26.5625 10.4375 C20.27635802 8.22514421 14.29141653 7.35833999 7.70703125 6.64453125 C4.75 6.25 4.75 6.25 3.75 5.25 C1.90108054 5.01636119 0.04511969 4.83696365 -1.8125 4.6875 C-2.82441406 4.60371094 -3.83632813 4.51992187 -4.87890625 4.43359375 C-6.05259766 4.34271484 -6.05259766 4.34271484 -7.25 4.25 C-4.83923194 1.28290085 -3.90322061 0.30024774 0 0 Z " fill="currentColor" transform="translate(268.25,71.75)"/>
<path d="M0 0 C8.55395637 1.06143984 16.75116332 2.47484591 25 5 C21.83650409 6.86131271 19.52763845 7.24746869 15.875 7.1875 C14.57175781 7.17783203 14.57175781 7.17783203 13.2421875 7.16796875 C11 7 11 7 9 6 C8.030625 6.185625 7.06125 6.37125 6.0625 6.5625 C3 7 3 7 0 5 C-0.1875 2.375 -0.1875 2.375 0 0 Z " fill="currentColor" transform="translate(288,33)"/>
<path d="M0 0 C13.73089866 -1.2610009 25.00220064 4.21176249 36 12 C35.01 12.33 34.02 12.66 33 13 C32.34 12.34 31.68 11.68 31 11 C28.93125966 10.3574765 28.93125966 10.3574765 27 10 C27 9.34 27 8.68 27 8 C26.01 8.33 25.02 8.66 24 9 C21 8 18 7 15 6 C15.33 5.01 15.66 4.02 16 3 C15.34 3 14.68 3 14 3 C13.67 3.66 13.34 4.32 13 5 C8.71 3.68 4.42 2.36 0 1 C0 0.67 0 0.34 0 0 Z " fill="currentColor" transform="translate(272,103)"/>
<path d="M0 0 C0.33 0 0.66 0 1 0 C2.07870346 14.00388241 2.1100174 27.9600871 2 42 C2.66 41.01 3.32 40.02 4 39 C7.625 37.8125 7.625 37.8125 11 37 C9.33333333 38.66666667 7.66666667 40.33333333 6 42 C5.46375 42.598125 4.9275 43.19625 4.375 43.8125 C3 45 3 45 0 45 C0 30.15 0 15.3 0 0 Z " fill="currentColor" transform="translate(156,352)"/>
<path d="M0 0 C0.33 1.32 0.66 2.64 1 4 C14.2 4 27.4 4 41 4 C41 4.33 41 4.66 41 5 C26.48 5.33 11.96 5.66 -3 6 C-3.33 8.64 -3.66 11.28 -4 14 C-4.33 14 -4.66 14 -5 14 C-5.06058594 13.37351562 -5.12117187 12.74703125 -5.18359375 12.1015625 C-5.26738281 11.28429687 -5.35117188 10.46703125 -5.4375 9.625 C-5.51871094 8.81289062 -5.59992188 8.00078125 -5.68359375 7.1640625 C-5.89090114 4.95727195 -5.89090114 4.95727195 -7 3 C-6.34 3 -5.68 3 -5 3 C-4.67 2.34 -4.34 1.68 -4 1 C-2 0 -2 0 0 0 Z " fill="currentColor" transform="translate(135,72)"/>
<path d="M0 0 C0.33 0 0.66 0 1 0 C0.88638398 2.79256219 0.7596411 5.58344118 0.625 8.375 C0.57859375 9.56609375 0.57859375 9.56609375 0.53125 10.78125 C0.2265625 16.7734375 0.2265625 16.7734375 -2 19 C-2.642634 21.06161736 -2.642634 21.06161736 -3.0625 23.375 C-3.99433115 27.98024815 -3.99433115 27.98024815 -4.62109375 30.1640625 C-5.21505354 32.08553266 -5.21505354 32.08553266 -4 34 C-5.98 34.495 -5.98 34.495 -8 35 C-8.495 33.515 -8.495 33.515 -9 32 C-8.34 32 -7.68 32 -7 32 C-7.33 31.01 -7.66 30.02 -8 29 C-7.67 28.67 -7.34 28.34 -7 28 C-6.55074362 25.96106719 -6.10463534 23.92140393 -5.671875 21.87890625 C-4.59831445 17.27882412 -3.23625317 12.76463342 -1.90234375 8.234375 C-1.13827655 5.49564063 -0.50965585 2.79522592 0 0 Z " fill="currentColor" transform="translate(356,181)"/>
<path d="M0 0 C0 0.99 0 1.98 0 3 C0.061875 3.845625 0.12375 4.69125 0.1875 5.5625 C0.0946875 6.7690625 0.0946875 6.7690625 0 8 C-0.99 8.66 -1.98 9.32 -3 10 C-3 9.01 -3 8.02 -3 7 C-4.65 7.66 -6.3 8.32 -8 9 C-7.34 10.32 -6.68 11.64 -6 13 C-10.32564205 14.58255197 -14.428721 15.45144652 -19 16 C-16.48167759 13.27885968 -13.6509746 11.25561773 -10.625 9.125 C-6.71398414 6.31735683 -3.2291869 3.56324072 0 0 Z " fill="currentColor" transform="translate(332,230)"/>
<path d="M0 0 C0.6953125 1.75 0.6953125 1.75 1 4 C-1.88351141 8.58496225 -6.41881487 13.15223627 -11 16 C-13.3125 15.75 -13.3125 15.75 -15 15 C-14.67 14.01 -14.34 13.02 -14 12 C-10.9375 10.8125 -10.9375 10.8125 -8 10 C-7.67 8.35 -7.34 6.7 -7 5 C-4.69 4.34 -2.38 3.68 0 3 C0 2.01 0 1.02 0 0 Z " fill="currentColor" transform="translate(319,204)"/>
<path d="M0 0 C0 0.99 0 1.98 0 3 C-1.01320313 3.18175781 -1.01320313 3.18175781 -2.046875 3.3671875 C-3.38492187 3.61855469 -3.38492187 3.61855469 -4.75 3.875 C-5.63171875 4.03742188 -6.5134375 4.19984375 -7.421875 4.3671875 C-10.00469535 4.89537862 -10.00469535 4.89537862 -12.1875 6.125 C-12.785625 6.41375 -13.38375 6.7025 -14 7 C-16.25 6.125 -16.25 6.125 -18 5 C-15.12447975 1.69847675 -13.33717088 0.52892328 -9 0 C-8.154375 -0.20625 -7.30875 -0.4125 -6.4375 -0.625 C-3.92344933 -1.01177703 -2.38987813 -0.79662604 0 0 Z " fill="currentColor" transform="translate(297,297)"/>
<path d="M0 0 C0.66 0.33 1.32 0.66 2 1 C-8.29552046 8.20686432 -19.44985618 11.74715827 -32 12 C-32 11.34 -32 10.68 -32 10 C-30.29457031 9.67128906 -30.29457031 9.67128906 -28.5546875 9.3359375 C-19.35205703 7.4744054 -11.10565394 5.12804986 -2.625 1.07421875 C-1.325625 0.54248047 -1.325625 0.54248047 0 0 Z " fill="currentColor" transform="translate(311,246)"/>
<path d="M0 0 C0.33 0 0.66 0 1 0 C2.22726282 4.80105214 2.18371207 9.51698488 2.1875 14.4375 C2.19974609 15.27087891 2.21199219 16.10425781 2.22460938 16.96289062 C2.23582562 21.69240666 1.94034604 25.59507408 0 30 C-0.66 30.66 -1.32 31.32 -2 32 C-2.04241723 29.66705225 -2.04092937 27.33297433 -2 25 C-1.67 24.67 -1.34 24.34 -1 24 C-0.84235595 22.22130274 -0.74899323 20.43681524 -0.68359375 18.65234375 C-0.64169922 17.57275391 -0.59980469 16.49316406 -0.55664062 15.38085938 C-0.51732422 14.24455078 -0.47800781 13.10824219 -0.4375 11.9375 C-0.39431641 10.79732422 -0.35113281 9.65714844 -0.30664062 8.48242188 C-0.20017161 5.65507805 -0.09815793 2.82764262 0 0 Z " fill="currentColor" transform="translate(331,153)"/>
<path d="M0 0 C0.33 0.66 0.66 1.32 1 2 C2.98 1.67 4.96 1.34 7 1 C7 4 7 4 5.74658203 5.3503418 C4.88589111 6.01803589 4.88589111 6.01803589 4.0078125 6.69921875 C3.38519531 7.18583984 2.76257813 7.67246094 2.12109375 8.17382812 C1.13302734 8.9230957 1.13302734 8.9230957 0.125 9.6875 C-0.52597656 10.19861328 -1.17695312 10.70972656 -1.84765625 11.23632812 C-6.72183745 15 -6.72183745 15 -9 15 C-9 13 -9 13 -7.1875 10.875 C-5 9 -5 9 -2 9 C-2.061875 7.88625 -2.061875 7.88625 -2.125 6.75 C-1.99601866 3.91241048 -1.42948778 2.41226062 0 0 Z " fill="currentColor" transform="translate(122,416)"/>
<path d="M0 0 C0.66 1.65 1.32 3.3 2 5 C0.35 5.66 -1.3 6.32 -3 7 C-2.67 8.32 -2.34 9.64 -2 11 C-3.65 11 -5.3 11 -7 11 C-7.35475877 7.18634321 -7.2619932 5.41557542 -5.1875 2.125 C-3 0 -3 0 0 0 Z " fill="currentColor" transform="translate(94,438)"/>
<path d="M0 0 C0.2475 0.639375 0.495 1.27875 0.75 1.9375 C1.78813195 4.19635114 1.78813195 4.19635114 4 4.5 C6 5 6 5 7.1875 6.5625 C8.3397583 10.0192749 8.63744592 13.37445916 9 17 C7.68 17.33 6.36 17.66 5 18 C4.80664062 17.39671875 4.61328125 16.7934375 4.4140625 16.171875 C4.15367187 15.37265625 3.89328125 14.5734375 3.625 13.75 C3.36976563 12.96109375 3.11453125 12.1721875 2.8515625 11.359375 C2.05609295 8.99704044 2.05609295 8.99704044 0.90625 6.875 C-0.24462985 4.49386928 -0.14500247 2.61004444 0 0 Z " fill="currentColor" transform="translate(352,131)"/>
<path d="M0 0 C0.99 0.33 1.98 0.66 3 1 C2.67 2.32 2.34 3.64 2 5 C-0.64 5.33 -3.28 5.66 -6 6 C-6.33 7.32 -6.66 8.64 -7 10 C-7.66 9.67 -8.32 9.34 -9 9 C-9 6.36 -9 3.72 -9 1 C-8.2575 1.20625 -7.515 1.4125 -6.75 1.625 C-3.60314245 2.05411694 -2.71187889 1.44633541 0 0 Z " fill="currentColor" transform="translate(166,385)"/>
<path d="M0 0 C-0.33 2.97 -0.66 5.94 -1 9 C-2.11375 8.071875 -2.11375 8.071875 -3.25 7.125 C-5.48801188 5.39562719 -7.43739987 4.13893339 -10 3 C-10 2.34 -10 1.68 -10 1 C-6.78548731 -0.60725635 -3.56387464 -0.05748185 0 0 Z " fill="currentColor" transform="translate(336,96)"/>
<path d="M0 0 C0.33 0.66 0.66 1.32 1 2 C1.5775 1.649375 2.155 1.29875 2.75 0.9375 C5.39786506 -0.16577711 6.33185326 0.19843491 9 1 C3.21782606 4.05498079 -0.5589964 5.64451156 -7 4 C-7 4.66 -7 5.32 -7 6 C-7.99 5.67 -8.98 5.34 -10 5 C-10 3.68 -10 2.36 -10 1 C-9.01 1.33 -8.02 1.66 -7 2 C-4.64811553 1.40206327 -2.31074405 0.74118205 0 0 Z " fill="currentColor" transform="translate(322,289)"/>
<path d="M0 0 C2.0625 0.4375 2.0625 0.4375 4 1 C-12.60229249 11.59720797 -12.60229249 11.59720797 -18.2890625 10.59765625 C-18.85367187 10.40042969 -19.41828125 10.20320312 -20 10 C-18.73160474 9.49384702 -17.46016898 8.99530901 -16.1875 8.5 C-15.47980469 8.2215625 -14.77210938 7.943125 -14.04296875 7.65625 C-12 7 -12 7 -9 7 C-9 6.34 -9 5.68 -9 5 C-8.43410156 4.72285156 -7.86820312 4.44570312 -7.28515625 4.16015625 C-6.55167969 3.79792969 -5.81820313 3.43570313 -5.0625 3.0625 C-3.96615234 2.52302734 -3.96615234 2.52302734 -2.84765625 1.97265625 C-1.03750973 1.13628173 -1.03750973 1.13628173 0 0 Z " fill="currentColor" transform="translate(302,220)"/>
<path d="M0 0 C2.33944736 0.28730055 4.6739143 0.61936779 7 1 C3.50794062 4.59476701 -0.04033675 7.92026191 -4 11 C-4.66 11 -5.32 11 -6 11 C-6 10.01 -6 9.02 -6 8 C-5.0409375 7.6596875 -5.0409375 7.6596875 -4.0625 7.3125 C-1.73252567 6.15613334 -1.73252567 6.15613334 -1.3125 3.4375 C-1.1578125 2.2309375 -1.1578125 2.2309375 -1 1 C-0.67 0.67 -0.34 0.34 0 0 Z " fill="currentColor" transform="translate(97,437)"/>
<path d="M0 0 C0.66 0.66 1.32 1.32 2 2 C1.625 5.125 1.625 5.125 1 8 C1.66 8 2.32 8 3 8 C4 11 4 11 2.6875 14.625 C1 18 1 18 -1 19 C-1.0272616 16.95840905 -1.04651345 14.91671037 -1.0625 12.875 C-1.07410156 11.73804688 -1.08570313 10.60109375 -1.09765625 9.4296875 C-1.005327 6.1870844 -0.61389906 3.18067388 0 0 Z " fill="currentColor" transform="translate(357,181)"/>
<path d="M0 0 C-1.72569639 1.13031603 -3.45571739 2.25403107 -5.1875 3.375 C-6.15042969 4.00148438 -7.11335938 4.62796875 -8.10546875 5.2734375 C-10.69803936 6.81988312 -13.16853116 7.97508075 -16 9 C-16 8.01 -16 7.02 -16 6 C-15.34 6 -14.68 6 -14 6 C-13.67 5.34 -13.34 4.68 -13 4 C-11.66666667 3.33333333 -10.33333333 2.66666667 -9 2 C-8.67 1.34 -8.34 0.68 -8 0 C-2.55072464 -1.27536232 -2.55072464 -1.27536232 0 0 Z " fill="currentColor" transform="translate(347,280)"/>
<path d="M0 0 C0.66 0 1.32 0 2 0 C2 7.59 2 15.18 2 23 C1.34 23 0.68 23 0 23 C-0.06058594 22.10796875 -0.12117188 21.2159375 -0.18359375 20.296875 C-0.26738281 19.12640625 -0.35117188 17.9559375 -0.4375 16.75 C-0.51871094 15.58984375 -0.59992188 14.4296875 -0.68359375 13.234375 C-0.89725234 10.1422399 -0.89725234 10.1422399 -1.59375 7.78125 C-2.24818175 4.91181849 -1.03225227 2.67171175 0 0 Z " fill="currentColor" transform="translate(86,358)"/>
<path d="M0 0 C2.56687367 3.8503105 1.83288724 5.58569763 1 10 C0.2575 10.144375 -0.485 10.28875 -1.25 10.4375 C-3.52027739 10.90187492 -5.75759479 11.41863569 -8 12 C-6.625 9.5 -6.625 9.5 -5 7 C-4.34 7 -3.68 7 -3 7 C-2.690625 6.030625 -2.38125 5.06125 -2.0625 4.0625 C-1 1 -1 1 0 0 Z " fill="currentColor" transform="translate(287,174)"/>
<path d="M0 0 C1.36125 0.12375 1.36125 0.12375 2.75 0.25 C3.08 1.24 3.41 2.23 3.75 3.25 C6.39 3.25 9.03 3.25 11.75 3.25 C11.75 3.91 11.75 4.57 11.75 5.25 C5.48 4.92 -0.79 4.59 -7.25 4.25 C-3.25 0.25 -3.25 0.25 0 0 Z " fill="currentColor" transform="translate(268.25,71.75)"/>
<path d="M0 0 C0.33 0 0.66 0 1 0 C1 6.27 1 12.54 1 19 C0.34 19 -0.32 19 -1 19 C-1.22237877 16.58388467 -1.42832339 14.1682283 -1.625 11.75 C-1.72167969 10.72712891 -1.72167969 10.72712891 -1.8203125 9.68359375 C-2.11594735 5.8772951 -2.17561392 3.22190154 0 0 Z " fill="currentColor" transform="translate(203,333)"/>
<path d="M0 0 C3.1166231 2.54996436 4.01692052 5.14330357 5 9 C5.125 12.375 5.125 12.375 5 15 C2.525 14.01 2.525 14.01 0 13 C0.185625 11.9275 0.37125 10.855 0.5625 9.75 C0.9375724 6.53509375 0.9846349 4.9539047 0 2 C0 1.34 0 0.68 0 0 Z " fill="currentColor" transform="translate(392,117)"/>
<path d="M0 0 C0.98120464 3.05263664 0.98120464 4.94736336 0 8 C-0.66 8 -1.32 8 -2 8 C-2.09152344 8.57234375 -2.18304688 9.1446875 -2.27734375 9.734375 C-3.17688458 12.55455705 -4.56952241 14.07584262 -6.5625 16.25 C-7.20316406 16.95640625 -7.84382813 17.6628125 -8.50390625 18.390625 C-8.99761719 18.92171875 -9.49132812 19.4528125 -10 20 C-10 16.20222739 -8.78252961 14.82353811 -6.6875 11.6875 C-4.18518755 7.868181 -1.90479129 4.14572221 0 0 Z " fill="currentColor" transform="translate(349,205)"/>
<path d="M0 0 C1.32 0.99 2.64 1.98 4 3 C3.34 3 2.68 3 2 3 C2.0407666 3.77714355 2.0815332 4.55428711 2.12353516 5.35498047 C2.30144416 8.86120491 2.46342033 12.36798675 2.625 15.875 C2.68945312 17.09832031 2.75390625 18.32164062 2.8203125 19.58203125 C2.871875 20.74863281 2.9234375 21.91523438 2.9765625 23.1171875 C3.02893066 24.19597168 3.08129883 25.27475586 3.13525391 26.38623047 C3 29 3 29 1 31 C0.67 20.77 0.34 10.54 0 0 Z " fill="currentColor" transform="translate(357,150)"/>
<path d="M0 0 C6.03280791 1.6166348 9.950809 3.16709462 14 8 C13.278125 7.690625 12.55625 7.38125 11.8125 7.0625 C9.19692691 6.07439461 6.74881018 5.4712246 4 5 C3.01 6.485 3.01 6.485 2 8 C1.34 8 0.68 8 0 8 C0.185625 7.05125 0.37125 6.1025 0.5625 5.125 C1.28686632 2.10131207 1.28686632 2.10131207 0 0 Z " fill="currentColor" transform="translate(336,50)"/>
<path d="M0 0 C1.32 0.33 2.64 0.66 4 1 C0.7 4.3 -2.6 7.6 -6 11 C-6.66 10.67 -7.32 10.34 -8 10 C-6.38731308 7.28775382 -4.75098126 4.62647188 -3 2 C-2.34 2 -1.68 2 -1 2 C-0.67 1.34 -0.34 0.68 0 0 Z " fill="currentColor" transform="translate(360,264)"/>
<path d="M0 0 C2.06242617 -0.02717692 4.12495703 -0.0464758 6.1875 -0.0625 C7.33605469 -0.07410156 8.48460937 -0.08570312 9.66796875 -0.09765625 C12.59300586 -0.01192832 15.16316291 0.32150977 18 1 C18 1.33 18 1.66 18 2 C11.48755792 2.69508823 5.4489191 3.31909709 -1 2 C-0.67 1.34 -0.34 0.68 0 0 Z " fill="currentColor" transform="translate(167,30)"/>
<path d="M0 0 C-2.16070464 2.16070464 -4.38838937 3.43303362 -7 5 C-7.66 5.66 -8.32 6.32 -9 7 C-9 6.34 -9 5.68 -9 5 C-10.32 5.33 -11.64 5.66 -13 6 C-13 4.68 -13 3.36 -13 2 C-8.49646738 0.24252386 -4.82360189 -0.19294408 0 0 Z " fill="currentColor" transform="translate(285,257)"/>
<path d="M0 0 C1.10242833 3.30728498 0.8610103 4.29604217 0 7.5625 C-1.02053325 10.86760022 -1.02053325 10.86760022 0 14 C-1.32 14.33 -2.64 14.66 -4 15 C-4.33 14.01 -4.66 13.02 -5 12 C-4.34 12 -3.68 12 -3 12 C-3.33 11.01 -3.66 10.02 -4 9 C-3.67 8.67 -3.34 8.34 -3 8 C-2.7834375 6.2675 -2.7834375 6.2675 -2.5625 4.5 C-2.376875 3.345 -2.19125 2.19 -2 1 C-1.34 0.67 -0.68 0.34 0 0 Z " fill="currentColor" transform="translate(352,201)"/>
<path d="M0 0 C1.58139421 3.16278842 -0.04778954 5.69526958 -1 9 C-1.16928543 11.79244045 -1.16928543 11.79244045 -1 14 C-2.65 14.66 -4.3 15.32 -6 16 C-5.34 12.7 -4.68 9.4 -4 6 C-3.34 6 -2.68 6 -2 6 C-1.855625 5.195625 -1.71125 4.39125 -1.5625 3.5625 C-1 1 -1 1 0 0 Z " fill="currentColor" transform="translate(398,199)"/>
<path d="M0 0 C5.09210286 3.56320845 9.22660027 7.04741286 13 12 C10.625 12.1875 10.625 12.1875 8 12 C6 9 6 9 6 6 C5.38125 5.7525 4.7625 5.505 4.125 5.25 C1.62519797 3.77952822 1.16683978 2.58596924 0 0 Z " fill="currentColor" transform="translate(351,58)"/>
<path d="M0 0 C0.66 0.33 1.32 0.66 2 1 C2.48837209 6.37209302 2.48837209 6.37209302 0.25 9.25 C-1.78330477 10.83145927 -3.63933273 11.98828546 -6 13 C-6 12.01 -6 11.02 -6 10 C-5.01 9.67 -4.02 9.34 -3 9 C-1.97718482 6.90280128 -1.97718482 6.90280128 -1.3125 4.4375 C-1.06113281 3.61121094 -0.80976563 2.78492188 -0.55078125 1.93359375 C-0.36902344 1.29550781 -0.18726563 0.65742188 0 0 Z " fill="currentColor" transform="translate(202,354)"/>
<path d="M0 0 C7.89031079 -0.30347349 7.89031079 -0.30347349 11 2 C11.70009871 3.31608663 12.3709533 4.64851102 13 6 C11.39253944 5.57476184 9.78910164 5.13429874 8.1875 4.6875 C7.29417969 4.44386719 6.40085937 4.20023437 5.48046875 3.94921875 C2.94752262 2.9799181 1.7283504 2.04990396 0 0 Z " fill="currentColor" transform="translate(299,81)"/>
<path d="M0 0 C0.33 0.66 0.66 1.32 1 2 C0.34 1.67 -0.32 1.34 -1 1 C-0.67 0.67 -0.34 0.34 0 0 Z M-1 2 C-1.9375 4.0625 -1.9375 4.0625 -4 6 C-7.07110598 6.05989746 -9.99011728 5.58052245 -13 5 C-9.62803192 1.62803192 -5.5120049 0.49599837 -1 2 Z " fill="currentColor" transform="translate(326,242)"/>
<path d="M0 0 C0.33 0.66 0.66 1.32 1 2 C-1.97 6.29 -4.94 10.58 -8 15 C-8.33 14.01 -8.66 13.02 -9 12 C-7.625 9.5 -7.625 9.5 -6 7 C-5.67 6.01 -5.34 5.02 -5 4 C-3.66666667 3.66666667 -2.33333333 3.33333333 -1 3 C-0.67 2.01 -0.34 1.02 0 0 Z " fill="currentColor" transform="translate(382,240)"/>
<path d="M0 0 C0.33 0.66 0.66 1.32 1 2 C0.09239638 4.59732225 -0.87067892 7.09450975 -1.9375 9.625 C-2.22818359 10.33140625 -2.51886719 11.0378125 -2.81835938 11.765625 C-3.53867488 13.51327573 -4.26845694 15.25701915 -5 17 C-6.38857478 13.2676525 -5.57927184 11.02409791 -4.1875 7.375 C-3.83042969 6.41335937 -3.47335937 5.45171875 -3.10546875 4.4609375 C-2 2 -2 2 0 0 Z " fill="currentColor" transform="translate(395,213)"/>
<path d="M0 0 C0.99 0.33 1.98 0.66 3 1 C3 1.66 3 2.32 3 3 C3.66 3 4.32 3 5 3 C5 5.31 5 7.62 5 10 C3.0625 9.6875 3.0625 9.6875 1 9 C-0.04561999 5.86314002 0 3.27634061 0 0 Z " fill="currentColor" transform="translate(320,134)"/>
<path d="M0 0 C0.99 0.33 1.98 0.66 3 1 C1.515 3.475 1.515 3.475 0 6 C0.99 7.485 0.99 7.485 2 9 C-1 10 -1 10 -4 10 C-2.99806563 6.20696275 -2.18975773 3.28463659 0 0 Z " fill="currentColor" transform="translate(342,220)"/>
<path d="M0 0 C1.98 0.495 1.98 0.495 4 1 C3.505 1.86625 3.01 2.7325 2.5 3.625 C0.9522239 7.10749623 0.73197104 9.24759458 1 13 C0.01 13.495 0.01 13.495 -1 14 C-1.027193 12.41676312 -1.04648306 10.83338938 -1.0625 9.25 C-1.07410156 8.36828125 -1.08570313 7.4865625 -1.09765625 6.578125 C-1.00826198 4.2181162 -0.66912821 2.25501476 0 0 Z " fill="currentColor" transform="translate(229,259)"/>
<path d="M0 0 C2.79593429 0.27959343 3.83856113 0.83299428 5.8125 2.875 C6.204375 3.57625 6.59625 4.2775 7 5 C6.67 5.99 6.34 6.98 6 8 C5.566875 7.505 5.13375 7.01 4.6875 6.5 C3.00259517 4.66781808 3.00259517 4.66781808 0 5 C-0.5625 3.0625 -0.5625 3.0625 -1 1 C-0.67 0.67 -0.34 0.34 0 0 Z " fill="currentColor" transform="translate(365,75)"/>
<path d="M0 0 C0 0.99 0 1.98 0 3 C0.061875 3.845625 0.12375 4.69125 0.1875 5.5625 C0.125625 6.366875 0.06375 7.17125 0 8 C-0.99 8.66 -1.98 9.32 -3 10 C-3 9.01 -3 8.02 -3 7 C-3.99 7.33 -4.98 7.66 -6 8 C-4.55746343 4.63408134 -2.66735273 2.48952921 0 0 Z " fill="currentColor" transform="translate(332,230)"/>
<path d="M0 0 C1.0625 1.875 1.0625 1.875 2 4 C1.67 4.66 1.34 5.32 1 6 C-2.68754757 5.50168276 -4.60490662 4.89932357 -7 2 C-4.69 2 -2.38 2 0 2 C0 1.34 0 0.68 0 0 Z " fill="currentColor" transform="translate(279,144)"/>
<path d="M0 0 C1.65 0.33 3.3 0.66 5 1 C2.60939149 2.59373901 0.69171821 3.65297076 -1.9375 4.6875 C-2.60652344 4.95949219 -3.27554687 5.23148437 -3.96484375 5.51171875 C-6 6 -6 6 -10 5 C-5.05 3.515 -5.05 3.515 0 2 C0 1.34 0 0.68 0 0 Z " fill="currentColor" transform="translate(315,293)"/>
<path d="M0 0 C1 3 1 3 -0.3125 6.125 C-2 9 -2 9 -4 10 C-3.67 7.03 -3.34 4.06 -3 1 C-2.01 0.67 -1.02 0.34 0 0 Z " fill="currentColor" transform="translate(356,264)"/>
<path d="M0 0 C1.32 0.66 2.64 1.32 4 2 C2.8125 4.5 2.8125 4.5 1 7 C-1.6875 7.3125 -1.6875 7.3125 -4 7 C-3.34 6.67 -2.68 6.34 -2 6 C-2 5.34 -2 4.68 -2 4 C-2.66 3.67 -3.32 3.34 -4 3 C-3.01 2.67 -2.02 2.34 -1 2 C-0.67 1.34 -0.34 0.68 0 0 Z " fill="currentColor" transform="translate(372,248)"/>
<path d="M0 0 C-1.32 1.65 -2.64 3.3 -4 5 C-5.32 4.67 -6.64 4.34 -8 4 C-7 1 -7 1 -5.125 -0.25 C-3 -1 -3 -1 0 0 Z " fill="currentColor" transform="translate(312,215)"/>
<path d="M0 0 C1.65 0 3.3 0 5 0 C4.34 1.98 3.68 3.96 3 6 C2.34 6 1.68 6 1 6 C0.67 6.99 0.34 7.98 0 9 C-0.66 7.68 -1.32 6.36 -2 5 C-0.68 4.67 0.64 4.34 2 4 C2 3.01 2 2.02 2 1 C1.34 0.67 0.68 0.34 0 0 Z " fill="currentColor" transform="translate(322,192)"/>
<path d="M0 0 C3 1 3 1 4.6875 3.6875 C6.03558623 7.08981286 6.25833766 9.38327271 6 13 C4.43926745 10.65890118 3.13626133 8.43666597 1.875 5.9375 C1.34519531 4.89916016 1.34519531 4.89916016 0.8046875 3.83984375 C0 2 0 2 0 0 Z " fill="currentColor" transform="translate(346,122)"/>
<path d="M0 0 C1.98 0 3.96 0 6 0 C5.67 1.32 5.34 2.64 5 4 C3.02 4 1.04 4 -1 4 C-0.67 2.68 -0.34 1.36 0 0 Z " fill="currentColor" transform="translate(99,434)"/>
<path d="M0 0 C2.35953094 2.35953094 2.49141413 3.77895617 3 7 C1.35 6.67 -0.3 6.34 -2 6 C-1.125 1.125 -1.125 1.125 0 0 Z " fill="currentColor" transform="translate(346,272)"/>
<path d="M0 0 C0.99 0 1.98 0 3 0 C6 3.33333333 6 3.33333333 6 6 C4.35 6.33 2.7 6.66 1 7 C0.67 4.69 0.34 2.38 0 0 Z " fill="currentColor" transform="translate(305,116)"/>
<path d="M0 0 C2.20914 3.31371 2.22481553 4.3446021 2.125 8.1875 C2.10695313 9.08855469 2.08890625 9.98960937 2.0703125 10.91796875 C2.03550781 11.94857422 2.03550781 11.94857422 2 13 C1.67 13 1.34 13 1 13 C-0.97387813 8.23947038 -1.0070238 5.03511899 0 0 Z " fill="currentColor" transform="translate(329,150)"/>
<path d="M0 0 C2.475 0.99 2.475 0.99 5 2 C2.6875 4.5 2.6875 4.5 0 7 C-0.99 7 -1.98 7 -3 7 C-3 6.34 -3 5.68 -3 5 C-2.34 4.67 -1.68 4.34 -1 4 C-0.34786708 1.97536745 -0.34786708 1.97536745 0 0 Z " fill="currentColor" transform="translate(300,216)"/>
<path d="M0 0 C4.3429862 0.65802821 8.07277596 2.03638798 12 4 C12.33 4.99 12.66 5.98 13 7 C8.50202887 5.31326082 4.27113698 3.18326108 0 1 C0 0.67 0 0.34 0 0 Z " fill="currentColor" transform="translate(303,84)"/>
<path d="M0 0 C0.99 0.33 1.98 0.66 3 1 C3 2.32 3 3.64 3 5 C1.68 5.33 0.36 5.66 -1 6 C-1.33 5.01 -1.66 4.02 -2 3 C-1.34 2.01 -0.68 1.02 0 0 Z " fill="currentColor" transform="translate(308,249)"/>
<path d="M0 0 C0.33 1.32 0.66 2.64 1 4 C-3.75 8 -3.75 8 -6 8 C-6.33 7.01 -6.66 6.02 -7 5 C-4.69 4.34 -2.38 3.68 0 3 C0 2.01 0 1.02 0 0 Z " fill="currentColor" transform="translate(383,236)"/>
<path d="M0 0 C5.75 0.75 5.75 0.75 8 3 C4.23375329 4.25541557 2.62811066 3.37061958 -1 2 C-0.67 1.34 -0.34 0.68 0 0 Z " fill="currentColor" transform="translate(288,107)"/>
<path d="M0 0 C1.32 0.33 2.64 0.66 4 1 C4.33 2.98 4.66 4.96 5 7 C4.01 6.34 3.02 5.68 2 5 C2 4.34 2 3.68 2 3 C1.34 3 0.68 3 0 3 C0 2.01 0 1.02 0 0 Z " fill="currentColor" transform="translate(376,89)"/>
<path d="M0 0 C1.24546405 2.49092811 0.7767578 3.41080733 0 6 C-1.32 6.33 -2.64 6.66 -4 7 C-4.33 6.01 -4.66 5.02 -5 4 C-4.0409375 3.8453125 -4.0409375 3.8453125 -3.0625 3.6875 C-2.381875 3.460625 -1.70125 3.23375 -1 3 C-0.67 2.01 -0.34 1.02 0 0 Z " fill="currentColor" transform="translate(389,224)"/>
<path d="M0 0 C0.6875 1.8125 0.6875 1.8125 1 4 C-0.1875 5.8125 -0.1875 5.8125 -2 7 C-4.1875 6.6875 -4.1875 6.6875 -6 6 C-5.67 5.34 -5.34 4.68 -5 4 C-2.4375 3.375 -2.4375 3.375 0 3 C0 2.01 0 1.02 0 0 Z " fill="currentColor" transform="translate(319,204)"/>
<path d="M0 0 C1.98 0 3.96 0 6 0 C6.33 0.99 6.66 1.98 7 3 C4.36 3 1.72 3 -1 3 C-0.67 2.01 -0.34 1.02 0 0 Z " fill="currentColor" transform="translate(265,72)"/>
<path d="M0 0 C3.3 0.33 6.6 0.66 10 1 C5.88348273 3.05825864 5.13191749 3.34008135 1 2 C0.67 1.34 0.34 0.68 0 0 Z " fill="currentColor" transform="translate(303,37)"/>
<path d="M0 0 C0.66 0.33 1.32 0.66 2 1 C1.67 1.99 1.34 2.98 1 4 C-1.31 4.33 -3.62 4.66 -6 5 C-4.06745228 2.9754262 -2.36841312 1.57894208 0 0 Z " fill="currentColor" transform="translate(319,241)"/>
<path d="M0 0 C-0.33 1.65 -0.66 3.3 -1 5 C-2.32 4.67 -3.64 4.34 -5 4 C-5 3.34 -5 2.68 -5 2 C-2 0 -2 0 0 0 Z " fill="currentColor" transform="translate(205,144)"/>
<path d="M0 0 C1.80125336 2.70188004 3.00243753 4.93057703 4 8 C3.67 8.99 3.34 9.98 3 11 C0.29417212 7.16674383 -0.32613618 4.67461851 0 0 Z " fill="currentColor" transform="translate(392,111)"/>
<path d="M0 0 C3.55780196 0.60990891 6.6828589 1.5783681 10 3 C6.52176885 4.15941038 4.54104422 3.70820884 1 3 C0.67 2.01 0.34 1.02 0 0 Z " fill="currentColor" transform="translate(313,38)"/>
</svg>
